<?xml version="1.0" encoding="UTF-8"?>
<svg version="1.1" xmlns="http://www.w3.org/2000/svg" width="512" height="512">
<path d="M0 0 C9.9 0 19.8 0 30 0 C30 9.9 30 19.8 30 30 C39.9 30 49.8 30 60 30 C60 39.9 60 49.8 60 60 C50.1 60 40.2 60 30 60 C27.72953981 81.1442448 27.72953981 81.1442448 32.80224609 101.14453125 C37.44202339 106.14627699 43.1397841 109.32578031 49.14746094 112.44921875 C53.59603287 114.86768237 57.49316121 117.92266602 61.5 121 C63.06026356 122.14887679 64.6227863 123.29469148 66.1875 124.4375 C72.23756465 128.89544237 78.1965809 133.47157658 84.1640625 138.0390625 C89.89902727 142.42064326 95.67759563 146.73542958 101.5 151 C109.11557306 156.57796154 116.63366703 162.2743268 124.12890625 168.01269531 C130.98454982 173.25149001 137.90714425 178.39324617 144.87304688 183.484375 C148.64874866 186.24724561 152.3762264 189.03770888 156 192 C155.38818042 195.75452018 153.71000034 198.00440901 151.40234375 200.984375 C150.68369141 201.91894531 149.96503906 202.85351562 149.22460938 203.81640625 C148.46986328 204.78449219 147.71511719 205.75257813 146.9375 206.75 C145.79958008 208.22533203 145.79958008 208.22533203 144.63867188 209.73046875 C142.76485494 212.15818126 140.88514699 214.58108177 139 217 C135 216 135 216 120 205 C120 226.78 120 248.56 120 271 C126.30480469 270.50113281 132.60960937 270.00226563 139.10546875 269.48828125 C207.56154832 265.19382782 207.56154832 265.19382782 221.323349 276.66825867 C228.78204076 284.58167568 233.14782473 294.55587686 237.05296326 304.59367371 C241.4980516 315.9992646 248.25602803 325.58215262 255.2258606 335.57580566 C258.42384604 340.19580906 261.50374996 344.89096801 264.578125 349.59375 C265.38320244 350.80958771 265.38320244 350.80958771 266.20454407 352.04998779 C266.69295273 352.79339417 267.18136139 353.53680054 267.68457031 354.30273438 C268.32280731 355.27067932 268.32280731 355.27067932 268.97393799 356.25817871 C270 358 270 358 271 361 C261.1 361 251.2 361 241 361 C241 410.83 241 460.66 241 512 C91.84 512 -57.32 512 -211 512 C-211 462.17 -211 412.34 -211 361 C-220.9 361 -230.8 361 -241 361 C-239.5957054 357.48926351 -238.59052134 355.1410146 -236.55517578 352.15161133 C-236.06365524 351.42518433 -235.5721347 350.69875732 -235.0657196 349.95031738 C-234.53098526 349.16878296 -233.99625092 348.38724854 -233.4453125 347.58203125 C-232.88387039 346.7475647 -232.32242828 345.91309814 -231.74397278 345.05334473 C-228.57277994 340.35143895 -225.34184847 335.70061661 -222.04125977 331.08862305 C-215.09840995 321.27707789 -209.32968629 312.08386948 -205.08203125 300.8125 C-200.07267151 288.5699349 -194.87470071 276.4493717 -182 271 C-153.31844997 263.6657993 -118.92560643 268.76859608 -90 271 C-90 249.22 -90 227.44 -90 205 C-95.28 208.96 -100.56 212.92 -106 217 C-112.21266674 215.44683332 -114.57074213 210.65789478 -118.3125 205.6875 C-119.06595703 204.72392578 -119.81941406 203.76035156 -120.59570312 202.76757812 C-121.30275391 201.83751953 -122.00980469 200.90746094 -122.73828125 199.94921875 C-123.38837158 199.09674561 -124.03846191 198.24427246 -124.70825195 197.3659668 C-126 195 -126 195 -125.95532227 192.90307617 C-124.69853063 190.3994496 -123.22439233 189.272656 -120.9765625 187.6015625 C-120.13029297 186.96476563 -119.28402344 186.32796875 -118.41210938 185.671875 C-117.49236328 184.99640625 -116.57261719 184.3209375 -115.625 183.625 C-114.2028418 182.56152344 -114.2028418 182.56152344 -112.75195312 181.4765625 C-109.84307359 179.30604612 -106.92346765 177.15081547 -104 175 C-103.16952148 174.38737305 -102.33904297 173.77474609 -101.48339844 173.14355469 C-98.38124464 170.85566825 -95.27763815 168.56983369 -92.16845703 166.29150391 C-86.2253899 161.92997008 -80.35378395 157.4804622 -74.5 153 C-67.11358208 147.34646605 -59.66805534 141.78529806 -52.1640625 136.2890625 C-45.33444191 131.27462346 -38.60126248 126.13912971 -31.87329102 120.98950195 C-23.61361645 114.67907671 -15.25546774 108.50685563 -6.86499023 102.37182617 C-6.24954346 101.91912354 -5.63409668 101.4664209 -5 101 C-4.27401611 100.62488281 -3.54803223 100.24976562 -2.80004883 99.86328125 C0.08763982 96.87415338 -0.39655663 93.33266918 -0.390625 89.39453125 C-0.37408875 88.55532639 -0.35755249 87.71612152 -0.34051514 86.85148621 C-0.29193977 84.17175042 -0.27064372 81.49258243 -0.25 78.8125 C-0.22184819 76.99541399 -0.19192187 75.17835455 -0.16015625 73.36132812 C-0.08283624 68.90728855 -0.04240892 64.45505655 0 60 C-9.9 60 -19.8 60 -30 60 C-30 50.1 -30 40.2 -30 30 C-20.1 30 -10.2 30 0 30 C0 20.1 0 10.2 0 0 Z " fill="#E0E5EF" transform="translate(241,0)"/>
<path d="M0 0 C0 28.38 0 56.76 0 86 C-4.95 86.99 -9.9 87.98 -15 89 C-26.62393196 93.64957278 -35.75029968 101.49570623 -41 113 C-45.68065917 125.10208454 -45.13015396 137.64679075 -40.25 149.5625 C-34.84711761 161.00624351 -26.54421156 168.14618377 -15 173 C-10.05 173.99 -5.1 174.98 0 176 C0 205.7 0 235.4 0 266 C-14.85 266 -29.7 266 -45 266 C-45 305.93 -45 345.86 -45 387 C-104.73 387 -164.46 387 -226 387 C-226 337.17 -226 287.34 -226 236 C-235.9 236 -245.8 236 -256 236 C-254.5957054 232.48926351 -253.59052134 230.1410146 -251.55517578 227.15161133 C-251.06365524 226.42518433 -250.5721347 225.69875732 -250.0657196 224.95031738 C-249.53098526 224.16878296 -248.99625092 223.38724854 -248.4453125 222.58203125 C-247.88387039 221.7475647 -247.32242828 220.91309814 -246.74397278 220.05334473 C-243.57277994 215.35143895 -240.34184847 210.70061661 -237.04125977 206.08862305 C-230.09840995 196.27707789 -224.32968629 187.08386948 -220.08203125 175.8125 C-215.07267151 163.5699349 -209.87470071 151.4493717 -197 146 C-168.17698908 138.62962613 -134.27952957 143.49563401 -105 146 C-105.04663284 145.18362061 -105.09326569 144.36724121 -105.14131165 143.52612305 C-105.56535461 135.76194659 -105.88328528 128.00350013 -106.08805561 120.23069763 C-106.19690618 116.23529813 -106.34381223 112.24958263 -106.58422852 108.25976562 C-108.087615 82.64138931 -108.087615 82.64138931 -103.02410889 75.02978516 C-98.24273332 70.08635924 -92.76715457 66.68462819 -86.71322632 63.50024414 C-82.33646902 61.08017161 -78.4609702 58.03644098 -74.5 55 C-72.9398101 53.85102317 -71.37756817 52.70482303 -69.8125 51.5625 C-63.76538455 47.10673072 -57.80915327 42.53298096 -51.84472656 37.9675293 C-45.25543459 32.93299355 -38.59884426 27.99793317 -31.90917969 23.09790039 C-25.7744285 18.59515862 -19.71579875 13.99937144 -13.69238281 9.34887695 C-1.56198431 0 -1.56198431 0 0 0 Z " fill="#E1E6F0" transform="translate(256,125)"/>
<path d="M0 0 C30.36 0 60.72 0 92 0 C112.15941428 20.50109927 112.15941428 20.50109927 118.26708984 36.70898438 C122.40914165 46.86705677 128.98201451 55.62310403 135.2258606 64.57580566 C138.42384604 69.19580906 141.50374996 73.89096801 144.578125 78.59375 C145.11484329 79.40430847 145.65156158 80.21486694 146.20454407 81.04998779 C146.93715706 82.16509735 146.93715706 82.16509735 147.68457031 83.30273438 C148.32280731 84.27067932 148.32280731 84.27067932 148.97393799 85.25817871 C150 87 150 87 151 90 C141.1 90 131.2 90 121 90 C121 139.83 121 189.66 121 241 C81.07 241 41.14 241 0 241 C0 161.47 0 81.94 0 0 Z " fill="#CFD7E6" transform="translate(361,271)"/>
<path d="M0 0 C0 28.38 0 56.76 0 86 C-4.95 86.99 -9.9 87.98 -15 89 C-26.62393196 93.64957278 -35.75029968 101.49570623 -41 113 C-45.68065917 125.10208454 -45.13015396 137.64679075 -40.25 149.5625 C-34.84711761 161.00624351 -26.54421156 168.14618377 -15 173 C-10.05 173.99 -5.1 174.98 0 176 C0 205.7 0 235.4 0 266 C-14.85 266 -29.7 266 -45 266 C-45 305.93 -45 345.86 -45 387 C-64.8 387 -84.6 387 -105 387 C-105.46343232 347.90736182 -105.85098223 308.81732512 -106.07237192 269.72272375 C-106.09863507 265.10176542 -106.125816 260.48081292 -106.15356445 255.85986328 C-106.16182723 254.48000878 -106.16182723 254.48000878 -106.17025694 253.07227844 C-106.26150367 238.19946723 -106.42700051 223.32836991 -106.62020872 208.45657367 C-106.81696908 193.18335586 -106.93331167 177.91103215 -106.97585839 162.63659906 C-107.00460045 153.21901122 -107.0951623 143.80626746 -107.2662458 134.39017224 C-107.3777289 127.92276926 -107.41070202 121.45784936 -107.38352893 114.98955655 C-107.37013955 111.26182043 -107.38980601 107.54250442 -107.50331497 103.8162899 C-108.12922035 82.2021476 -108.12922035 82.2021476 -102.97766089 75.28425407 C-98.10987681 70.46832518 -92.63847292 66.92580238 -86.6959604 63.57788372 C-82.38235948 61.05323215 -78.4722385 58.02219591 -74.5 55 C-72.93939682 53.85158458 -71.37710911 52.70545171 -69.8125 51.5625 C-63.76538455 47.10673072 -57.80915327 42.53298096 -51.84472656 37.9675293 C-45.25543459 32.93299355 -38.59884426 27.99793317 -31.90917969 23.09790039 C-25.7744285 18.59515862 -19.71579875 13.99937144 -13.69238281 9.34887695 C-1.56198431 0 -1.56198431 0 0 0 Z " fill="#F2F4F8" transform="translate(256,125)"/>
<path d="M0 0 C9.9 0 19.8 0 30 0 C30 9.9 30 19.8 30 30 C39.9 30 49.8 30 60 30 C60 39.9 60 49.8 60 60 C50.1 60 40.2 60 30 60 C27.72953981 81.1442448 27.72953981 81.1442448 32.80224609 101.14453125 C37.44202339 106.14627699 43.1397841 109.32578031 49.14746094 112.44921875 C53.59603287 114.86768237 57.49316121 117.92266602 61.5 121 C63.06026356 122.14887679 64.6227863 123.29469148 66.1875 124.4375 C72.23756465 128.89544237 78.1965809 133.47157658 84.1640625 138.0390625 C89.89902727 142.42064326 95.67759563 146.73542958 101.5 151 C109.11557306 156.57796154 116.63366703 162.2743268 124.12890625 168.01269531 C130.98454982 173.25149001 137.90714425 178.39324617 144.87304688 183.484375 C148.64874866 186.24724561 152.3762264 189.03770888 156 192 C155.38818042 195.75452018 153.71000034 198.00440901 151.40234375 200.984375 C150.68369141 201.91894531 149.96503906 202.85351562 149.22460938 203.81640625 C148.46986328 204.78449219 147.71511719 205.75257813 146.9375 206.75 C145.79958008 208.22533203 145.79958008 208.22533203 144.63867188 209.73046875 C142.76485494 212.15818126 140.88514699 214.58108177 139 217 C134.2323028 216.06315933 131.08228585 213.4131701 127.25 210.5625 C126.55261719 210.05912109 125.85523438 209.55574219 125.13671875 209.03710938 C124.47800781 208.55177734 123.81929687 208.06644531 123.140625 207.56640625 C122.23618652 206.90040405 122.23618652 206.90040405 121.31347656 206.22094727 C120.8800293 205.81803467 120.44658203 205.41512207 120 205 C120 204.34 120 203.68 120 203 C119.42072754 202.72704102 118.84145508 202.45408203 118.24462891 202.17285156 C116.02102283 201.01098474 114.10378052 199.7220358 112.0859375 198.234375 C110.95865234 197.40486328 110.95865234 197.40486328 109.80859375 196.55859375 C109.00550781 195.96175781 108.20242188 195.36492187 107.375 194.75 C106.53324219 194.12738281 105.69148437 193.50476563 104.82421875 192.86328125 C98.39536115 188.0872839 92.06830018 183.19007383 85.76635742 178.24853516 C79.70252943 173.508431 73.52816639 168.93431775 67.31640625 164.390625 C61.32248814 159.99768828 55.40040281 155.5175977 49.5 151 C40.36976873 144.01141744 31.14629134 137.15821654 21.86499023 130.37182617 C20.51849058 129.38138481 19.20049743 128.35178234 17.90209961 127.29907227 C16.06326795 125.71455603 16.06326795 125.71455603 13.7578125 126.421875 C9.8277898 128.67078317 6.40041011 131.41882097 2.875 134.25 C-3.43924812 139.2433809 -9.81092822 144.12799372 -16.3125 148.875 C-23.10198226 153.84004519 -29.82149141 158.8866614 -36.5 164 C-43.11939217 169.06663531 -49.77531573 174.07395775 -56.5 179 C-71.40045172 189.92584723 -86.08954009 201.08139175 -100.2890625 212.90625 C-100.99804688 213.4734375 -101.70703125 214.040625 -102.4375 214.625 C-103.03433594 215.11226562 -103.63117188 215.59953125 -104.24609375 216.1015625 C-106 217 -106 217 -107.86425781 216.84057617 C-112.57153043 214.98790818 -115.3592631 209.61045647 -118.3125 205.6875 C-119.06595703 204.72392578 -119.81941406 203.76035156 -120.59570312 202.76757812 C-121.6562793 201.37249023 -121.6562793 201.37249023 -122.73828125 199.94921875 C-123.38837158 199.09674561 -124.03846191 198.24427246 -124.70825195 197.3659668 C-126 195 -126 195 -125.95532227 192.90307617 C-124.69853063 190.3994496 -123.22439233 189.272656 -120.9765625 187.6015625 C-120.13029297 186.96476563 -119.28402344 186.32796875 -118.41210938 185.671875 C-117.03249023 184.65867188 -117.03249023 184.65867188 -115.625 183.625 C-114.2028418 182.56152344 -114.2028418 182.56152344 -112.75195312 181.4765625 C-109.84307359 179.30604612 -106.92346765 177.15081547 -104 175 C-103.16952148 174.38737305 -102.33904297 173.77474609 -101.48339844 173.14355469 C-98.38124464 170.85566825 -95.27763815 168.56983369 -92.16845703 166.29150391 C-86.2253899 161.92997008 -80.35378395 157.4804622 -74.5 153 C-67.11358208 147.34646605 -59.66805534 141.78529806 -52.1640625 136.2890625 C-45.33444191 131.27462346 -38.60126248 126.13912971 -31.87329102 120.98950195 C-23.61361645 114.67907671 -15.25546774 108.50685563 -6.86499023 102.37182617 C-6.24954346 101.91912354 -5.63409668 101.4664209 -5 101 C-4.27401611 100.62488281 -3.54803223 100.24976562 -2.80004883 99.86328125 C0.08763982 96.87415338 -0.39655663 93.33266918 -0.390625 89.39453125 C-0.37408875 88.55532639 -0.35755249 87.71612152 -0.34051514 86.85148621 C-0.29193977 84.17175042 -0.27064372 81.49258243 -0.25 78.8125 C-0.22184819 76.99541399 -0.19192187 75.17835455 -0.16015625 73.36132812 C-0.08283624 68.90728855 -0.04240892 64.45505655 0 60 C-9.9 60 -19.8 60 -30 60 C-30 50.1 -30 40.2 -30 30 C-20.1 30 -10.2 30 0 30 C0 20.1 0 10.2 0 0 Z " fill="#FE7F40" transform="translate(241,0)"/>
<path d="M0 0 C55.46411209 -3.37334769 55.46411209 -3.37334769 69.703125 -2.68359375 C71.19633144 -2.61130963 71.19633144 -2.61130963 72.71970367 -2.53756523 C84.6237931 -1.83805224 94.96690758 -1.07570841 103.546875 8.02734375 C109.65107615 15.5583396 113.55887317 24.61243878 117.05296326 33.59367371 C121.4980516 44.9992646 128.25602803 54.58215262 135.2258606 64.57580566 C138.42384604 69.19580906 141.50374996 73.89096801 144.578125 78.59375 C145.11484329 79.40430847 145.65156158 80.21486694 146.20454407 81.04998779 C146.93715706 82.16509735 146.93715706 82.16509735 147.68457031 83.30273438 C148.32280731 84.27067932 148.32280731 84.27067932 148.97393799 85.25817871 C150 87 150 87 151 90 C101.17 90 51.34 90 0 90 C0 60.3 0 30.6 0 0 Z " fill="#E63A39" transform="translate(361,271)"/>
<path d="M0 0 C1.38339286 -0.06552409 1.38339286 -0.06552409 2.79473305 -0.1323719 C25.08668065 -0.97297515 47.63063698 1.30776951 69.76953125 2.62109375 C69.76953125 32.32109375 69.76953125 62.02109375 69.76953125 92.62109375 C19.93953125 92.62109375 -29.89046875 92.62109375 -81.23046875 92.62109375 C-79.82617415 89.11035726 -78.82099009 86.76210835 -76.78564453 83.77270508 C-76.29412399 83.04627808 -75.80260345 82.31985107 -75.29618835 81.57141113 C-74.76145401 80.78987671 -74.22671967 80.00834229 -73.67578125 79.203125 C-73.11433914 78.36865845 -72.55289703 77.53419189 -71.97444153 76.67443848 C-68.80324869 71.9725327 -65.57231722 67.32171036 -62.27172852 62.7097168 C-55.3288787 52.89817164 -49.56015504 43.70496323 -45.3125 32.43359375 C-35.75437934 9.07413857 -25.04691761 1.18554794 0 0 Z " fill="#F2593C" transform="translate(81.23046875,268.37890625)"/>
<path d="M0 0 C29.7 0 59.4 0 90 0 C90 39.93 90 79.86 90 121 C60.3 121 30.6 121 0 121 C0 81.07 0 41.14 0 0 Z " fill="#353D4D" transform="translate(211,391)"/>
<path d="M0 0 C1.2264255 1.02030357 2.43552946 2.06184492 3.625 3.125 C4.22828125 3.62515625 4.8315625 4.1253125 5.453125 4.640625 C12.94732397 11.3528206 18.09625545 22.01369666 18.9609375 32.0078125 C19.28745041 47.29292251 15.42878669 58.75731484 5.125 70.25 C-3.83910104 78.90200468 -15.16915633 82.42621451 -27.36206055 82.43969727 C-39.78188351 82.18659826 -49.77616871 77.48366585 -58.62890625 68.953125 C-62.88954125 64.40217049 -65.97846971 59.86906466 -68.375 54.125 C-68.766875 53.279375 -69.15875 52.43375 -69.5625 51.5625 C-73.34932544 40.20202367 -71.9874682 27.97385272 -67.375 17.125 C-60.70863111 4.91483729 -50.63350734 -2.52278183 -37.75 -7.1875 C-24.32646185 -9.95356241 -11.28357011 -8.04116491 0 0 Z " fill="#59ABFE" transform="translate(282.375,218.875)"/>
<path d="M0 0 C14.85 0 29.7 0 45 0 C45 39.93 45 79.86 45 121 C30.15 121 15.3 121 0 121 C0 81.07 0 41.14 0 0 Z " fill="#515866" transform="translate(211,391)"/>
<path d="M0 0 C2.99343144 1.46349011 5.65507755 3.06913355 8.375 5 C9.26316406 5.63035156 10.15132813 6.26070313 11.06640625 6.91015625 C12.03449219 7.59980469 13.00257813 8.28945312 14 9 C14.99902344 9.69996094 15.99804688 10.39992188 17.02734375 11.12109375 C25.14108366 16.82697254 33.03390461 22.80188612 40.9074707 28.83374023 C46.72661631 33.285941 52.58814411 37.67179888 58.5 42 C66.12752689 47.5864476 73.65644967 53.29276646 81.1640625 59.0390625 C86.89902853 63.42064421 92.67763175 67.73537864 98.5 72 C107.14874934 78.33574346 115.67854145 84.82038913 124.1953125 91.33203125 C129.76867354 95.59265849 135.37518127 99.80758853 141 104 C140.38818042 107.75452018 138.71000034 110.00440901 136.40234375 112.984375 C135.68369141 113.91894531 134.96503906 114.85351562 134.22460938 115.81640625 C133.46986328 116.78449219 132.71511719 117.75257813 131.9375 118.75 C130.79958008 120.22533203 130.79958008 120.22533203 129.63867188 121.73046875 C127.76485494 124.15818126 125.88514699 126.58108177 124 129 C119.2323028 128.06315933 116.08228585 125.4131701 112.25 122.5625 C111.55261719 122.05912109 110.85523438 121.55574219 110.13671875 121.03710938 C109.47800781 120.55177734 108.81929688 120.06644531 108.140625 119.56640625 C107.53766602 119.12240479 106.93470703 118.67840332 106.31347656 118.22094727 C105.66330566 117.61657837 105.66330566 117.61657837 105 117 C105 116.34 105 115.68 105 115 C104.42072754 114.72704102 103.84145508 114.45408203 103.24462891 114.17285156 C101.02102283 113.01098474 99.10378052 111.7220358 97.0859375 110.234375 C95.95865234 109.40486328 95.95865234 109.40486328 94.80859375 108.55859375 C93.60396484 107.66333984 93.60396484 107.66333984 92.375 106.75 C91.53324219 106.12738281 90.69148438 105.50476563 89.82421875 104.86328125 C83.39536115 100.0872839 77.06830018 95.19007383 70.76635742 90.24853516 C64.70252943 85.508431 58.52816639 80.93431775 52.31640625 76.390625 C46.32249002 71.99768965 40.40034041 67.51767715 34.5 63 C26.77240288 57.08352481 18.98451318 51.25843432 11.12695312 45.515625 C10.39412109 44.979375 9.66128906 44.443125 8.90625 43.890625 C8.27009766 43.42688477 7.63394531 42.96314453 6.97851562 42.48535156 C6.32560547 41.99518555 5.67269531 41.50501953 5 41 C4.10450439 40.45537109 3.20900879 39.91074219 2.28637695 39.34960938 C-0.4434733 36.54426193 -0.56844226 34.74797495 -0.56648254 30.90557861 C-0.54067612 30.11689392 -0.51486969 29.32820923 -0.48828125 28.515625 C-0.48120651 27.70003113 -0.47413177 26.88443726 -0.46684265 26.04412842 C-0.43890544 23.44514319 -0.37617281 20.84833128 -0.3125 18.25 C-0.28741605 16.48570825 -0.26460304 14.72138265 -0.24414062 12.95703125 C-0.18908154 8.63718644 -0.10281735 4.31896137 0 0 Z " fill="#F25A3C" transform="translate(256,88)"/>
<path d="M0 0 C9.9 0 19.8 0 30 0 C30 9.9 30 19.8 30 30 C39.9 30 49.8 30 60 30 C60 39.9 60 49.8 60 60 C50.1 60 40.2 60 30 60 C30 72.54 30 85.08 30 98 C22.32212029 93.61264016 22.32212029 93.61264016 19.875 91.1875 C17.28868811 88.73410122 17.28868811 88.73410122 14.64453125 89.109375 C11.38810053 90.20607545 9.41475378 91.83030954 6.8125 94.0625 C2.19683656 98 2.19683656 98 0 98 C0 85.46 0 72.92 0 60 C-9.9 60 -19.8 60 -30 60 C-30 50.1 -30 40.2 -30 30 C-20.1 30 -10.2 30 0 30 C0 20.1 0 10.2 0 0 Z " fill="#FFDE40" transform="translate(241,0)"/>
<path d="M0 0 C0 29.7 0 59.4 0 90 C-12.91574632 90 -22.98001056 85.76449589 -32.25390625 76.828125 C-36.51454125 72.27717049 -39.60346971 67.74406466 -42 62 C-42.391875 61.154375 -42.78375 60.30875 -43.1875 59.4375 C-46.97432544 48.07702367 -45.6124682 35.84885272 -41 25 C-34.75787787 13.56689029 -25.11960638 5.48888956 -12.8359375 1.25390625 C-8.32153435 -0.00977803 -4.82935683 0 0 0 Z " fill="#66CCFE" transform="translate(256,211)"/>
<path d="M0 0 C9.9 0 19.8 0 30 0 C30 30.03 30 60.06 30 91 C20.1 91 10.2 91 0 91 C0 60.97 0 30.94 0 0 Z " fill="#353D4D" transform="translate(406,421)"/>
<path d="M0 0 C9.9 0 19.8 0 30 0 C30 30.03 30 60.06 30 91 C20.1 91 10.2 91 0 91 C0 60.97 0 30.94 0 0 Z " fill="#515866" transform="translate(76,421)"/>
<path d="M0 0 C4.95 0 9.9 0 15 0 C15 9.9 15 19.8 15 30 C24.9 30 34.8 30 45 30 C45 39.9 45 49.8 45 60 C35.1 60 25.2 60 15 60 C15 72.54 15 85.08 15 98 C12.69 96.68 10.38 95.36 8 94 C7.20597778 93.66809662 6.41195557 93.33619324 5.59387207 92.99423218 C2.90941622 91.63411174 1.66791575 90.53809086 0 88 C-1.15443566 81.39191109 -0.92995655 74.85066674 -0.78125 68.1640625 C-0.76632106 66.19967962 -0.75493712 64.23526687 -0.74694824 62.27084351 C-0.71646544 57.11123794 -0.63793588 51.95344652 -0.54931641 46.79455566 C-0.46734154 41.52604717 -0.43091192 36.25724425 -0.390625 30.98828125 C-0.30493776 20.65805896 -0.16847751 10.32918058 0 0 Z " fill="#FEBD3F" transform="translate(256,0)"/>
</svg>
