<?xml version="1.0" encoding="UTF-8"?>
<svg version="1.1" xmlns="http://www.w3.org/2000/svg" width="512" height="512">
<path d="M0 0 C1.10794922 -0.01260864 2.21589844 -0.02521729 3.35742188 -0.03820801 C4.54916016 -0.03011108 5.74089844 -0.02201416 6.96875 -0.01367188 C8.19658203 -0.01749878 9.42441406 -0.02132568 10.68945312 -0.02526855 C13.28516459 -0.02799029 15.88090336 -0.02061099 18.4765625 -0.00390625 C22.45374599 0.01749738 26.42912282 -0.0037015 30.40625 -0.02929688 C32.92708733 -0.02665365 35.44792353 -0.02152878 37.96875 -0.01367188 C39.16048828 -0.0217688 40.35222656 -0.02986572 41.58007812 -0.03820801 C43.24200195 -0.01929504 43.24200195 -0.01929504 44.9375 0 C45.91138672 0.00318237 46.88527344 0.00636475 47.88867188 0.00964355 C51.22508721 0.66647665 52.41480551 1.85071365 54.46875 4.51757812 C54.86435125 7.25090848 55.02679447 9.59471926 55.0078125 12.32617188 C55.01960541 13.08873795 55.03139832 13.85130402 55.04354858 14.63697815 C55.0787792 17.07655043 55.0879599 19.51527277 55.09375 21.95507812 C55.22895046 41.66849863 55.97943326 58.91341087 69.46875 74.51757812 C70.24476563 75.49210937 71.02078125 76.46664062 71.8203125 77.47070312 C89.88443215 99.10816973 123.23292398 107.97316102 149.95898438 110.62329102 C187.3730372 113.77445933 225.61875133 106.44103814 255.59375 82.83007812 C269.00327337 71.33371633 275.68037778 57.91858346 277.46875 40.51757812 C277.83810808 33.51822741 277.83297883 26.49377984 277.84960938 19.48608398 C277.8591058 17.09892071 277.89277504 14.71304631 277.9296875 12.32617188 C277.92464203 11.60014267 277.91959656 10.87411346 277.91439819 10.12608337 C277.97773418 6.88611346 278.15103591 4.93010165 280.15518188 2.32789612 C282.99823755 0.10326535 284.42217617 0.01169127 288 0 C289.10794922 -0.01260864 290.21589844 -0.02521729 291.35742188 -0.03820801 C292.54916016 -0.03011108 293.74089844 -0.02201416 294.96875 -0.01367188 C296.19658203 -0.01749878 297.42441406 -0.02132568 298.68945312 -0.02526855 C301.28516459 -0.02799029 303.88090336 -0.02061099 306.4765625 -0.00390625 C310.45374599 0.01749738 314.42912282 -0.0037015 318.40625 -0.02929688 C320.92708733 -0.02665365 323.44792353 -0.02152878 325.96875 -0.01367188 C327.16048828 -0.0217688 328.35222656 -0.02986572 329.58007812 -0.03820801 C331.24200195 -0.01929504 331.24200195 -0.01929504 332.9375 0 C333.91138672 0.00318237 334.88527344 0.00636475 335.88867188 0.00964355 C339.26430888 0.67419813 340.31187008 1.87344401 342.46875 4.51757812 C342.96554399 6.93798089 342.96554399 6.93798089 342.96094131 9.69498062 C342.96890551 10.74796349 342.9768697 11.80094635 342.98507524 12.88583779 C342.97342387 14.04147092 342.9617725 15.19710404 342.94976807 16.38775635 C342.95318577 17.61623976 342.95660347 18.84472316 342.96012473 20.11043334 C342.96558079 23.5222098 342.95305657 26.93307155 342.93301249 30.34473753 C342.91575763 34.02295645 342.92158279 37.70114653 342.92462158 41.37939453 C342.9267202 47.75275636 342.91415766 54.12595454 342.89167023 60.49927521 C342.85917832 69.71402756 342.8487461 78.92870068 342.84371826 88.14350411 C342.83496119 103.09343564 342.80833445 118.04327992 342.77050781 132.99316406 C342.73379838 147.51659712 342.7054814 162.04000649 342.68847656 176.56347656 C342.68742567 177.45852434 342.68637477 178.35357212 342.68529204 179.27574256 C342.68007193 183.76588125 342.67501709 188.25602011 342.67004442 192.74615908 C342.62856954 230.00337624 342.5548248 267.26043206 342.46875 304.51757812 C321.34875 304.51757812 300.22875 304.51757812 278.46875 304.51757812 C278.13875 232.24757813 277.80875 159.97757812 277.46875 85.51757812 C274.82875 88.48757812 272.18875 91.45757812 269.46875 94.51757812 C267.36178594 96.33901901 265.19950092 98.10003659 262.96875 99.76757812 C262.41340576 100.18378418 261.85806152 100.59999023 261.28588867 101.02880859 C249.84284114 109.51757812 249.84284114 109.51757812 246.46875 109.51757812 C246.46875 147.46757812 246.46875 185.41757813 246.46875 224.51757812 C251.74875 224.51757812 257.02875 224.51757812 262.46875 224.51757812 C262.46875 240.35757813 262.46875 256.19757813 262.46875 272.51757812 C199.10875 272.51757812 135.74875 272.51757812 70.46875 272.51757812 C70.46875 256.67757813 70.46875 240.83757812 70.46875 224.51757812 C75.74875 224.51757812 81.02875 224.51757812 86.46875 224.51757812 C86.46875 186.56757813 86.46875 148.61757812 86.46875 109.51757812 C84.81875 108.85757813 83.16875 108.19757813 81.46875 107.51757812 C59.8745471 94.32917233 59.8745471 94.32917233 55.46875 85.51757812 C55.13875 157.78757813 54.80875 230.05757813 54.46875 304.51757812 C33.34875 304.51757812 12.22875 304.51757812 -9.53125 304.51757812 C-9.61938789 266.36743048 -9.69326134 228.21737864 -9.73551132 190.06715836 C-9.74051431 185.56593091 -9.74569158 181.06470368 -9.75097656 176.56347656 C-9.7520258 175.66734137 -9.75307505 174.77120618 -9.75415608 173.84791538 C-9.77157409 159.32676566 -9.80311944 144.80567912 -9.83986118 130.28456691 C-9.87723181 115.3909881 -9.89947763 100.49744243 -9.90760398 85.60381866 C-9.91309982 76.40933853 -9.93047454 67.21503692 -9.96291587 58.02061173 C-9.98401592 51.72060329 -9.99046031 45.4206875 -9.98525551 39.12064627 C-9.98268666 35.48264947 -9.98669841 31.84496522 -10.0080719 28.20702362 C-10.0310509 24.26715093 -10.02322915 20.32768892 -10.01226807 16.38775635 C-10.02391943 15.23212322 -10.0355708 14.0764901 -10.04757524 12.88583779 C-10.03961104 11.83285493 -10.03164685 10.77987206 -10.02344131 9.69498062 C-10.0249602 8.78517071 -10.02647908 7.8753608 -10.02804399 6.93798089 C-8.89256089 1.40585589 -5.18313449 0.01693695 0 0 Z M102.46875 117.51757812 C102.46875 152.82757813 102.46875 188.13757813 102.46875 224.51757812 C113.02875 224.51757812 123.58875 224.51757812 134.46875 224.51757812 C134.46875 192.17757812 134.46875 159.83757812 134.46875 126.51757812 C130.93432357 125.33943598 127.55356718 124.22520902 123.97265625 123.29882812 C122.76319336 122.98365234 122.76319336 122.98365234 121.52929688 122.66210938 C120.70494141 122.44941406 119.88058594 122.23671875 119.03125 122.01757812 C117.38653126 121.59121741 115.74199673 121.16414536 114.09765625 120.73632812 C113.37650635 120.55005859 112.65535645 120.36378906 111.91235352 120.171875 C108.75377628 119.32613746 105.61278366 118.41587346 102.46875 117.51757812 Z M221.71875 119.83007812 C215.24066323 122.06586399 208.83727114 123.64354497 202.1015625 124.93945312 C199.55620495 125.25045799 199.55620495 125.25045799 198.46875 126.51757812 C198.37344019 129.56160234 198.34323361 132.58289521 198.35522461 135.62719727 C198.35507858 136.58319321 198.35493256 137.53918915 198.3547821 138.52415466 C198.35548165 141.70037058 198.36327597 144.87652864 198.37109375 148.05273438 C198.37295778 150.24848905 198.37438175 152.44424415 198.37538147 154.63999939 C198.37920781 160.43178446 198.38903909 166.22354463 198.40008545 172.01531982 C198.41029707 177.92036604 198.41487855 183.82541626 198.41992188 189.73046875 C198.43066126 201.3261846 198.44825899 212.9218754 198.46875 224.51757812 C209.02875 224.51757812 219.58875 224.51757812 230.46875 224.51757812 C230.46875 189.20757812 230.46875 153.89757812 230.46875 117.51757812 C227.33269322 117.51757812 224.66692767 118.7933227 221.71875 119.83007812 Z M150.46875 128.51757812 C150.46875 160.19757813 150.46875 191.87757813 150.46875 224.51757812 C161.02875 224.51757812 171.58875 224.51757812 182.46875 224.51757812 C182.46875 192.83757812 182.46875 161.15757812 182.46875 128.51757812 C171.90875 128.51757812 161.34875 128.51757812 150.46875 128.51757812 Z " fill="#000000" transform="translate(89.53125,63.482421875)"/>
<path d="M0 0 C1.64278427 -0.03377747 1.64278427 -0.03377747 3.3187561 -0.0682373 C8.34459634 -0.13921137 13.37028628 -0.19678897 18.39648438 -0.23535156 C21.04445502 -0.26193826 23.69232252 -0.30284004 26.33984375 -0.35839844 C30.15976799 -0.43763215 33.9777136 -0.47068292 37.79833984 -0.49414062 C38.97570709 -0.52713257 40.15307434 -0.56012451 41.36611938 -0.59411621 C47.17751134 -0.58003779 50.88133248 -0.30856724 55.37231445 3.58081055 C56.52594041 4.77203363 57.65703368 5.9856888 58.75927734 7.22460938 C59.80449435 8.23689682 60.8549746 9.24378937 61.91162109 10.24414062 C62.83072266 11.16582031 63.74982422 12.0875 64.69677734 13.03710938 C65.41704102 13.75157227 65.41704102 13.75157227 66.15185547 14.48046875 C70.92584004 19.26792013 70.94054755 22.45309097 70.99755859 29.02929688 C71.00563034 29.90482208 71.01370209 30.78034729 71.02201843 31.68240356 C71.03585956 33.53678404 71.04658159 35.39119 71.05444336 37.24560547 C71.07166763 40.08154503 71.11555377 42.91632224 71.15966797 45.75195312 C71.1697939 47.55272579 71.17831031 49.35350838 71.18505859 51.15429688 C71.20256668 52.0023288 71.22007477 52.85036072 71.2381134 53.72409058 C71.23518784 54.51816315 71.23226227 55.31223572 71.22924805 56.13037109 C71.23511429 56.82605194 71.24098053 57.52173279 71.24702454 58.23849487 C70.49005291 61.32089565 69.34345671 62.38827813 66.75927734 64.22460938 C63.81142464 64.61916725 61.23750451 64.77193252 58.29052734 64.7421875 C57.4380542 64.74919678 56.58558105 64.75620605 55.70727539 64.76342773 C52.89094415 64.78102506 50.07561871 64.76937897 47.25927734 64.75585938 C45.30159309 64.75855379 43.34391014 64.76243579 41.38623047 64.76745605 C37.28388728 64.77335345 33.18189253 64.76478031 29.07958984 64.74609375 C23.82007106 64.72330413 18.56136871 64.73642591 13.30187988 64.76038361 C9.25954024 64.77483501 5.21739429 64.7702386 1.17504883 64.75987244 C-0.76424252 64.75720333 -2.70355143 64.76048135 -4.64282227 64.76979065 C-7.35301316 64.77994539 -10.0618804 64.76447065 -12.77197266 64.7421875 C-13.97527222 64.75433289 -13.97527222 64.75433289 -15.20288086 64.76672363 C-18.71782093 64.71315973 -20.83883257 64.51183495 -23.73469543 62.44219971 C-25.32260897 60.10403367 -25.75563911 59.01044007 -25.8059082 56.22558594 C-25.83934578 55.06352631 -25.83934578 55.06352631 -25.87345886 53.87799072 C-25.8747731 53.04878113 -25.87608734 52.21957153 -25.87744141 51.36523438 C-25.88838333 50.50202576 -25.89932526 49.63881714 -25.91059875 48.74945068 C-25.92645036 46.92384807 -25.93166418 45.09812642 -25.92700195 43.27246094 C-25.92821304 40.49665207 -25.98788755 37.72616831 -26.05126953 34.95117188 C-26.20161643 20.11686084 -26.20161643 20.11686084 -22.06103516 15.33007812 C-20.82007129 14.25620653 -19.54738749 13.21749333 -18.24072266 12.22460938 C-17.21907428 11.18854034 -16.21149498 10.1383347 -15.22119141 9.07226562 C-14.29951172 8.15316406 -13.37783203 7.2340625 -12.42822266 6.28710938 C-11.71375977 5.5668457 -11.71375977 5.5668457 -10.98486328 4.83203125 C-7.15417379 1.01211725 -5.36007134 0.10480259 0 0 Z " fill="#000000" transform="translate(377.24072265625,383.775390625)"/>
<path d="M0 0 C1.64278427 -0.03377747 1.64278427 -0.03377747 3.3187561 -0.0682373 C8.34459634 -0.13921137 13.37028628 -0.19678897 18.39648438 -0.23535156 C21.04445502 -0.26193826 23.69232252 -0.30284004 26.33984375 -0.35839844 C30.15976799 -0.43763215 33.9777136 -0.47068292 37.79833984 -0.49414062 C38.97570709 -0.52713257 40.15307434 -0.56012451 41.36611938 -0.59411621 C47.17751134 -0.58003779 50.88133248 -0.30856724 55.37231445 3.58081055 C56.52594041 4.77203363 57.65703368 5.9856888 58.75927734 7.22460938 C59.80449435 8.23689682 60.8549746 9.24378937 61.91162109 10.24414062 C62.83072266 11.16582031 63.74982422 12.0875 64.69677734 13.03710938 C65.41704102 13.75157227 65.41704102 13.75157227 66.15185547 14.48046875 C70.92584004 19.26792013 70.94054755 22.45309097 70.99755859 29.02929688 C71.00563034 29.90482208 71.01370209 30.78034729 71.02201843 31.68240356 C71.03585956 33.53678404 71.04658159 35.39119 71.05444336 37.24560547 C71.07166763 40.08154503 71.11555377 42.91632224 71.15966797 45.75195312 C71.1697939 47.55272579 71.17831031 49.35350838 71.18505859 51.15429688 C71.20256668 52.0023288 71.22007477 52.85036072 71.2381134 53.72409058 C71.23518784 54.51816315 71.23226227 55.31223572 71.22924805 56.13037109 C71.23511429 56.82605194 71.24098053 57.52173279 71.24702454 58.23849487 C70.49005291 61.32089565 69.34345671 62.38827813 66.75927734 64.22460938 C63.81142464 64.61916725 61.23750451 64.77193252 58.29052734 64.7421875 C57.4380542 64.74919678 56.58558105 64.75620605 55.70727539 64.76342773 C52.89094415 64.78102506 50.07561871 64.76937897 47.25927734 64.75585938 C45.30159309 64.75855379 43.34391014 64.76243579 41.38623047 64.76745605 C37.28388728 64.77335345 33.18189253 64.76478031 29.07958984 64.74609375 C23.82007106 64.72330413 18.56136871 64.73642591 13.30187988 64.76038361 C9.25954024 64.77483501 5.21739429 64.7702386 1.17504883 64.75987244 C-0.76424252 64.75720333 -2.70355143 64.76048135 -4.64282227 64.76979065 C-7.35301316 64.77994539 -10.0618804 64.76447065 -12.77197266 64.7421875 C-13.97527222 64.75433289 -13.97527222 64.75433289 -15.20288086 64.76672363 C-18.71782093 64.71315973 -20.83883257 64.51183495 -23.73469543 62.44219971 C-25.32260897 60.10403367 -25.75563911 59.01044007 -25.8059082 56.22558594 C-25.83934578 55.06352631 -25.83934578 55.06352631 -25.87345886 53.87799072 C-25.8747731 53.04878113 -25.87608734 52.21957153 -25.87744141 51.36523438 C-25.88838333 50.50202576 -25.89932526 49.63881714 -25.91059875 48.74945068 C-25.92645036 46.92384807 -25.93166418 45.09812642 -25.92700195 43.27246094 C-25.92821304 40.49665207 -25.98788755 37.72616831 -26.05126953 34.95117188 C-26.20161643 20.11686084 -26.20161643 20.11686084 -22.06103516 15.33007812 C-20.82007129 14.25620653 -19.54738749 13.21749333 -18.24072266 12.22460938 C-17.21907428 11.18854034 -16.21149498 10.1383347 -15.22119141 9.07226562 C-14.29951172 8.15316406 -13.37783203 7.2340625 -12.42822266 6.28710938 C-11.71375977 5.5668457 -11.71375977 5.5668457 -10.98486328 4.83203125 C-7.15417379 1.01211725 -5.36007134 0.10480259 0 0 Z " fill="#000000" transform="translate(89.24072265625,383.775390625)"/>
<path d="M0 0 C6.80625 -0.12375 6.80625 -0.12375 13.75 -0.25 C15.17538086 -0.28641602 16.60076172 -0.32283203 18.06933594 -0.36035156 C19.75978027 -0.37533691 19.75978027 -0.37533691 21.484375 -0.390625 C22.63647461 -0.41157227 23.78857422 -0.43251953 24.97558594 -0.45410156 C28 0 28 0 30.37402344 1.46191406 C32.79154944 5.23557778 32.57354476 8.60302844 32.53125 13 C32.5350769 13.87269531 32.53890381 14.74539063 32.54284668 15.64453125 C32.5455649 17.48699092 32.53820994 19.32948924 32.52148438 21.171875 C32.50007248 23.99045934 32.52128801 26.80649485 32.546875 29.625 C32.54423171 31.41667229 32.53910669 33.20834299 32.53125 35 C32.53934692 35.84175781 32.54744385 36.68351562 32.55578613 37.55078125 C32.49677844 41.23678226 32.39287016 43.38674502 30.37402344 46.53808594 C27.23776717 48.46937991 25.1559854 48.45738155 21.484375 48.390625 C20.35741211 48.38063477 19.23044922 48.37064453 18.06933594 48.36035156 C15.93126465 48.30572754 15.93126465 48.30572754 13.75 48.25 C9.2125 48.1675 4.675 48.085 0 48 C0 32.16 0 16.32 0 0 Z " fill="#000000" transform="translate(448,288)"/>
<path d="M0 0 C1.12696289 0.00999023 2.25392578 0.01998047 3.41503906 0.03027344 C5.55311035 0.08489746 5.55311035 0.08489746 7.734375 0.140625 C12.271875 0.223125 16.809375 0.305625 21.484375 0.390625 C21.484375 16.230625 21.484375 32.070625 21.484375 48.390625 C14.678125 48.514375 14.678125 48.514375 7.734375 48.640625 C6.30899414 48.67704102 4.88361328 48.71345703 3.41503906 48.75097656 C2.28807617 48.7609668 1.16111328 48.77095703 0 48.78125 C-1.72814941 48.8126709 -1.72814941 48.8126709 -3.49121094 48.84472656 C-6.515625 48.390625 -6.515625 48.390625 -8.88964844 46.92871094 C-11.30717444 43.15504722 -11.08916976 39.78759656 -11.046875 35.390625 C-11.0507019 34.51792969 -11.05452881 33.64523437 -11.05847168 32.74609375 C-11.0611899 30.90363408 -11.05383494 29.06113576 -11.03710938 27.21875 C-11.01569748 24.40016566 -11.03691301 21.58413015 -11.0625 18.765625 C-11.05985671 16.97395271 -11.05473169 15.18228201 -11.046875 13.390625 C-11.05497192 12.54886719 -11.06306885 11.70710938 -11.07141113 10.83984375 C-11.01240344 7.15384274 -10.90849516 5.00387998 -8.88964844 1.85253906 C-5.75339217 -0.07875491 -3.6716104 -0.06675655 0 0 Z " fill="#000000" transform="translate(42.515625,287.609375)"/>
</svg>
