<?xml version="1.0" encoding="UTF-8"?>
<svg version="1.1" xmlns="http://www.w3.org/2000/svg" width="512" height="512">
<path d="M0 0 C10.23 0 20.46 0 31 0 C31 9.57 31 19.14 31 29 C91.06 29 151.12 29 213 29 C213 79.49 213 129.98 213 182 C190.89 182 168.78 182 146 182 C146 190.91 146 199.82 146 209 C185.27 209 224.54 209 265 209 C265 219.23 265 229.46 265 240 C255.1 240 245.2 240 235 240 C235 329.76 235 419.52 235 512 C85.84 512 -63.32 512 -217 512 C-217 422.24 -217 332.48 -217 240 C-226.9 240 -236.8 240 -247 240 C-247 229.77 -247 219.54 -247 209 C-207.73 209 -168.46 209 -128 209 C-128 200.09 -128 191.18 -128 182 C-150.11 182 -172.22 182 -195 182 C-195 131.51 -195 81.02 -195 29 C-130.65 29 -66.3 29 0 29 C0 19.43 0 9.86 0 0 Z " fill="#485789" transform="translate(247,0)"/>
<path d="M0 0 C44.55 0 89.1 0 135 0 C135 8.91 135 17.82 135 27 C174.27 27 213.54 27 254 27 C254 37.23 254 47.46 254 58 C244.1 58 234.2 58 224 58 C224 147.76 224 237.52 224 330 C155.03 330 86.06 330 15 330 C15 309.54 15 289.08 15 268 C10.05 268 5.1 268 0 268 C0 257.77 0 247.54 0 237 C4.95 237 9.9 237 15 237 C15 226.77 15 216.54 15 206 C10.05 206 5.1 206 0 206 C0 196.43 0 186.86 0 177 C4.95 177 9.9 177 15 177 C15 166.77 15 156.54 15 146 C10.05 146 5.1 146 0 146 C0 136.76 0 127.52 0 118 C4.95 118 9.9 118 15 118 C15 107.77 15 97.54 15 87 C10.05 87 5.1 87 0 87 C0 77.43 0 67.86 0 58 C4.95 58 9.9 58 15 58 C15 47.77 15 37.54 15 27 C10.05 27 5.1 27 0 27 C0 18.09 0 9.18 0 0 Z " fill="#2D3C70" transform="translate(258,182)"/>
<path d="M0 0 C10.23 0 20.46 0 31 0 C31 9.57 31 19.14 31 29 C91.06 29 151.12 29 213 29 C213 79.49 213 129.98 213 182 C78.36 182 -56.28 182 -195 182 C-195 131.51 -195 81.02 -195 29 C-130.65 29 -66.3 29 0 29 C0 19.43 0 9.86 0 0 Z " fill="#F1F1FB" transform="translate(247,0)"/>
<path d="M0 0 C10.23 0 20.46 0 31 0 C31 9.57 31 19.14 31 29 C91.06 29 151.12 29 213 29 C213 79.49 213 129.98 213 182 C134.74508427 182 134.74508427 182 110.359375 181.78125 C107.88688353 181.76114344 105.41438998 181.74129082 102.94189453 181.72167969 C94.2112381 181.65079184 85.48062059 181.57517197 76.75 181.5 C57.0325 181.335 37.315 181.17 17 181 C17 130.84 17 80.68 17 29 C11.39 29 5.78 29 0 29 C0 19.43 0 9.86 0 0 Z " fill="#D8D8FA" transform="translate(247,0)"/>
<path d="M0 0 C39.6 0 79.2 0 120 0 C120 10.23 120 20.46 120 31 C110.1 31 100.2 31 90 31 C90 120.76 90 210.52 90 303 C60.3 303 30.6 303 0 303 C0 203.01 0 103.02 0 0 Z " fill="#485789" transform="translate(392,209)"/>
<path d="M0 0 C39.6 0 79.2 0 120 0 C120 99.99 120 199.98 120 303 C90.3 303 60.6 303 30 303 C30 213.24 30 123.48 30 31 C20.1 31 10.2 31 0 31 C0 20.77 0 10.54 0 0 Z " fill="#627399" transform="translate(0,209)"/>
<path d="M0 0 C39.6 0 79.2 0 120 0 C120 10.23 120 20.46 120 31 C80.4 31 40.8 31 0 31 C0 20.77 0 10.54 0 0 Z " fill="#A2A3CD" transform="translate(392,209)"/>
<path d="M0 0 C39.6 0 79.2 0 120 0 C120 10.23 120 20.46 120 31 C80.4 31 40.8 31 0 31 C0 20.77 0 10.54 0 0 Z " fill="#D7D8FA" transform="translate(0,209)"/>
<path d="M0 0 C5.61542209 3.26211062 10.29468144 8.1020767 12.29296875 14.33203125 C13.17153316 21.99750569 12.68327573 28.82404679 8.29296875 35.33203125 C3.45730876 40.79010293 -1.93602864 43.99074498 -9.203125 44.6484375 C-22.92636807 45.0700634 -22.92636807 45.0700634 -28.70703125 40.33203125 C-33.75971183 35.51084799 -37.27148786 31.16939777 -38.078125 24.0625 C-38.22075081 16.45299343 -37.9738303 11.08028284 -32.70703125 5.33203125 C-23.68207412 -3.69292588 -11.42054339 -5.13833669 0 0 Z " fill="#FB6730" transform="translate(151.70703125,83.66796875)"/>
<path d="M0 0 C9.9 0 19.8 0 30 0 C30 20.46 30 40.92 30 62 C20.1 62 10.2 62 0 62 C0 41.54 0 21.08 0 0 Z " fill="#F8EB5F" transform="translate(243,450)"/>
<path d="M0 0 C12.21 0 24.42 0 37 0 C37 3.96 37 7.92 37 12 C30.07 12 23.14 12 16 12 C16 13.65 16 15.3 16 17 C22.27 17 28.54 17 35 17 C35 20.63 35 24.26 35 28 C28.4 28 21.8 28 15 28 C15 29.98 15 31.96 15 34 C22.59 34 30.18 34 38 34 C38 37.63 38 41.26 38 45 C25.46 45 12.92 45 0 45 C0 30.15 0 15.3 0 0 Z " fill="#EC3D1F" transform="translate(354,82)"/>
<path d="M0 0 C2.52042508 1.82754069 4.79277587 3.80697023 7 6 C3.83047153 9.26008643 0.60062011 12.22237877 -3 15 C-3.825 14.34 -4.65 13.68 -5.5 13 C-9.46147982 10.37152998 -12.31734962 10.39578705 -17 11 C-19.43119623 12.87015094 -20.64069173 14.28138345 -22 17 C-22.37712577 21.99691647 -22.09290612 24.99067725 -19 29 C-15.74139091 31.17240606 -15.17949197 31.23564158 -11.5 30.8125 C-10.7265625 30.73644531 -9.953125 30.66039062 -9.15625 30.58203125 C-6.65253825 29.9062105 -5.64833515 28.96003956 -4 27 C-1.00779732 28.36370299 1.29026529 29.94908083 3.75 32.125 C4.36359375 32.66382813 4.9771875 33.20265625 5.609375 33.7578125 C6.06828125 34.16773438 6.5271875 34.57765625 7 35 C3.68763726 40.18456776 -0.16126355 42.47966419 -6 44 C-15.17452631 45.08407969 -23.49108075 44.81064032 -31 39 C-36.33955607 33.67159123 -38.52804487 28.16893702 -39.375 20.6875 C-38.66083347 13.66486246 -36.47826355 7.93054854 -31.25 3.0625 C-21.98675428 -4.18402433 -10.62068025 -5.34953083 0 0 Z " fill="#EC3D1F" transform="translate(337,84)"/>
<path d="M0 0 C12.21 0 24.42 0 37 0 C37 3.96 37 7.92 37 12 C29.74 12 22.48 12 15 12 C15 14.31 15 16.62 15 19 C21.27 19 27.54 19 34 19 C34 22.96 34 26.92 34 31 C27.73 31 21.46 31 15 31 C15 35.62 15 40.24 15 45 C10.05 45 5.1 45 0 45 C0 30.15 0 15.3 0 0 Z " fill="#FB6932" transform="translate(176,82)"/>
<path d="M0 0 C11.88 0 23.76 0 36 0 C36 3.96 36 7.92 36 12 C29.07 12 22.14 12 15 12 C15 14.31 15 16.62 15 19 C21.27 19 27.54 19 34 19 C34 22.96 34 26.92 34 31 C27.73 31 21.46 31 15 31 C15 35.62 15 40.24 15 45 C10.05 45 5.1 45 0 45 C0 30.15 0 15.3 0 0 Z " fill="#FB6932" transform="translate(224,82)"/>
<path d="M0 0 C10.23 0 20.46 0 31 0 C31 10.23 31 20.46 31 31 C26.070625 31.020625 21.14125 31.04125 16.0625 31.0625 C13.7268396 31.07615601 13.7268396 31.07615601 11.34399414 31.09008789 C9.52049438 31.09383423 9.52049438 31.09383423 7.66015625 31.09765625 C6.40855713 31.10289307 5.15695801 31.10812988 3.86743164 31.11352539 C1 31 1 31 0 30 C-0.08783542 27.78144736 -0.10694609 25.56011504 -0.09765625 23.33984375 C-0.09515869 22.12417725 -0.09266113 20.90851074 -0.09008789 19.65600586 C-0.08098389 18.09889893 -0.07187988 16.54179199 -0.0625 14.9375 C-0.041875 10.008125 -0.02125 5.07875 0 0 Z " fill="#EFE360" transform="translate(242,388)"/>
<path d="M0 0 C10.23 0 20.46 0 31 0 C31 10.23 31 20.46 31 31 C26.070625 31.020625 21.14125 31.04125 16.0625 31.0625 C13.7268396 31.07615601 13.7268396 31.07615601 11.34399414 31.09008789 C9.52049438 31.09383423 9.52049438 31.09383423 7.66015625 31.09765625 C6.40855713 31.10289307 5.15695801 31.10812988 3.86743164 31.11352539 C1 31 1 31 0 30 C-0.08783542 27.78144736 -0.10694609 25.56011504 -0.09765625 23.33984375 C-0.09515869 22.12417725 -0.09266113 20.90851074 -0.09008789 19.65600586 C-0.08098389 18.09889893 -0.07187988 16.54179199 -0.0625 14.9375 C-0.041875 10.008125 -0.02125 5.07875 0 0 Z " fill="#EFE360" transform="translate(242,328)"/>
<path d="M0 0 C10.23 0 20.46 0 31 0 C31 9.9 31 19.8 31 30 C20.77 30 10.54 30 0 30 C0 20.1 0 10.2 0 0 Z " fill="#F5D230" transform="translate(302,388)"/>
<path d="M0 0 C10.23 0 20.46 0 31 0 C31 9.9 31 19.8 31 30 C20.77 30 10.54 30 0 30 C0 20.1 0 10.2 0 0 Z " fill="#F6EA62" transform="translate(182,388)"/>
<path d="M0 0 C10.23 0 20.46 0 31 0 C31 9.9 31 19.8 31 30 C20.77 30 10.54 30 0 30 C0 20.1 0 10.2 0 0 Z " fill="#F6EA62" transform="translate(182,328)"/>
<path d="M0 0 C9.9 0 19.8 0 30 0 C30 9.9 30 19.8 30 30 C20.1 30 10.2 30 0 30 C0 20.1 0 10.2 0 0 Z " fill="#FAD62E" transform="translate(303,270)"/>
<path d="M0 0 C9.9 0 19.8 0 30 0 C30 9.9 30 19.8 30 30 C20.1 30 10.2 30 0 30 C0 20.1 0 10.2 0 0 Z " fill="#FBD72F" transform="translate(243,270)"/>
<path d="M0 0 C9.9 0 19.8 0 30 0 C30 9.9 30 19.8 30 30 C20.1 30 10.2 30 0 30 C0 20.1 0 10.2 0 0 Z " fill="#FAEE61" transform="translate(183,270)"/>
<path d="M0 0 C9.9 0 19.8 0 30 0 C30 9.9 30 19.8 30 30 C20.1 30 10.2 30 0 30 C0 20.1 0 10.2 0 0 Z " fill="#FAD62E" transform="translate(303,210)"/>
<path d="M0 0 C9.9 0 19.8 0 30 0 C30 9.9 30 19.8 30 30 C20.1 30 10.2 30 0 30 C0 20.1 0 10.2 0 0 Z " fill="#FBD72F" transform="translate(243,210)"/>
<path d="M0 0 C9.9 0 19.8 0 30 0 C30 9.9 30 19.8 30 30 C20.1 30 10.2 30 0 30 C0 20.1 0 10.2 0 0 Z " fill="#FAEE61" transform="translate(183,210)"/>
<path d="M0 0 C10.23 0 20.46 0 31 0 C31 9.57 31 19.14 31 29 C20.77 29 10.54 29 0 29 C0 19.43 0 9.86 0 0 Z " fill="#FDC001" transform="translate(247,0)"/>
<path d="M0 0 C9.57 0 19.14 0 29 0 C29 9.9 29 19.8 29 30 C19.43 30 9.86 30 0 30 C0 20.1 0 10.2 0 0 Z " fill="#FDD82D" transform="translate(392,390)"/>
<path d="M0 0 C9.57 0 19.14 0 29 0 C29 9.9 29 19.8 29 30 C19.43 30 9.86 30 0 30 C0 20.1 0 10.2 0 0 Z " fill="#FDF061" transform="translate(91,390)"/>
<path d="M0 0 C9.57 0 19.14 0 29 0 C29 9.9 29 19.8 29 30 C19.43 30 9.86 30 0 30 C0 20.1 0 10.2 0 0 Z " fill="#FDD82D" transform="translate(392,330)"/>
<path d="M0 0 C9.57 0 19.14 0 29 0 C29 9.9 29 19.8 29 30 C19.43 30 9.86 30 0 30 C0 20.1 0 10.2 0 0 Z " fill="#FDF161" transform="translate(91,330)"/>
<path d="M0 0 C9.57 0 19.14 0 29 0 C29 9.9 29 19.8 29 30 C19.43 30 9.86 30 0 30 C0 20.1 0 10.2 0 0 Z " fill="#FDD82D" transform="translate(392,270)"/>
<path d="M0 0 C9.57 0 19.14 0 29 0 C29 9.9 29 19.8 29 30 C19.43 30 9.86 30 0 30 C0 20.1 0 10.2 0 0 Z " fill="#FDF061" transform="translate(91,270)"/>
<path d="M0 0 C4.62 0 9.24 0 14 0 C14 20.13 14 40.26 14 61 C9.38 61 4.76 61 0 61 C0 40.87 0 20.74 0 0 Z " fill="#FFDA2D" transform="translate(258,451)"/>
<path d="M0 0 C9.57 0 19.14 0 29 0 C29 9.57 29 19.14 29 29 C19.43 29 9.86 29 0 29 C0 19.43 0 9.86 0 0 Z " fill="#FFDA2D" transform="translate(303,329)"/>
<path d="M0 0 C5.28 0 10.56 0 16 0 C16 15.18 16 30.36 16 46 C10.72 46 5.44 46 0 46 C0 30.82 0 15.64 0 0 Z " fill="#EC4124" transform="translate(271,82)"/>
<path d="M0 0 C4.95 0 9.9 0 15 0 C15 9.9 15 19.8 15 30 C10.05 30 5.1 30 0 30 C0 20.1 0 10.2 0 0 Z " fill="#FDF061" transform="translate(243,270)"/>
<path d="M0 0 C4.95 0 9.9 0 15 0 C15 9.9 15 19.8 15 30 C10.05 30 5.1 30 0 30 C0 20.1 0 10.2 0 0 Z " fill="#FDF061" transform="translate(243,210)"/>
<path d="M0 0 C4.95 0 9.9 0 15 0 C15 9.57 15 19.14 15 29 C10.05 29 5.1 29 0 29 C0 19.43 0 9.86 0 0 Z " fill="#FFDA2D" transform="translate(247,0)"/>
<path d="M0 0 C4.62 0 9.24 0 14 0 C14 9.57 14 19.14 14 29 C9.38 29 4.76 29 0 29 C0 19.43 0 9.86 0 0 Z " fill="#FFDA2D" transform="translate(258,389)"/>
<path d="M0 0 C4.62 0 9.24 0 14 0 C14 9.57 14 19.14 14 29 C9.38 29 4.76 29 0 29 C0 19.43 0 9.86 0 0 Z " fill="#FFDA2D" transform="translate(258,329)"/>
<path d="M0 0 C3.43203219 0.8517906 5.0647359 2.79004399 7.15625 5.53515625 C8.68839888 8.59945401 8.38563548 11.15172045 8.15625 14.53515625 C6.36582902 18.68139432 4.28393764 20.71129427 0.15625 22.53515625 C-2.84375 23.03515625 -2.84375 23.03515625 -5.84375 22.53515625 C-8.94282834 19.91815676 -11.53791128 17.71971856 -12.1171875 13.58203125 C-12.29588216 9.54078284 -12.26879285 6.3743932 -9.90625 2.97265625 C-6.32427161 0.12169386 -4.46822766 -0.2904348 0 0 Z " fill="#F2EEF6" transform="translate(140.84375,93.46484375)"/>
</svg>
