<?xml version="1.0" encoding="UTF-8"?>
<svg version="1.1" xmlns="http://www.w3.org/2000/svg" width="512" height="512">
<path d="M0 0 C0.61117676 0.32226562 1.22235352 0.64453125 1.85205078 0.9765625 C14.1176401 7.49524459 24.59905017 15.57703174 34.79296875 24.98046875 C36.71482152 26.73904907 38.67647489 28.40819775 40.6875 30.0625 C44.54877381 33.35540874 47.76598635 37.10098354 51 41 C51.61617188 41.72832031 52.23234375 42.45664063 52.8671875 43.20703125 C72.36932303 66.82106282 91.48517913 100.59592698 92 132 C90.43818681 135.670261 89.34089404 136.7727373 86 139 C79.90857288 138.67367355 79.90857288 138.67367355 77.3984375 136.8125 C75.54607462 134.41167213 74.95246382 132.09826874 74.125 129.1875 C71.8860851 122.20982912 69.59480378 118.18289326 62.9375 114.6875 C55.36210088 111.13231269 48.22185366 111.01512983 40.3125 113.6875 C32.69585761 116.72990185 28.61342982 120.63930962 25 128 C23.56986097 132.29952625 24.06568557 136.55756725 24.2578125 141.02734375 C23.9362236 144.73536126 22.64623914 147.35376086 20 150 C18.0390625 150.203125 18.0390625 150.203125 15.625 150.25 C14.43777344 150.28867187 14.43777344 150.28867187 13.2265625 150.328125 C11 150 11 150 9.32421875 148.84375 C7.58955966 146.42853144 6.98271131 144.11130826 6.1875 141.25 C3.82292557 133.86182028 0.81119923 129.26070294 -6.125 125.625 C-13.08372026 122.41113322 -20.19302252 121.95750662 -27.5625 124.125 C-33.83457093 126.49347434 -39.22705362 129.82365502 -42.4375 135.875 C-44.4089133 140.88924686 -44.5268806 146.08275793 -44.58569336 151.41552734 C-44.65144412 154.4742377 -44.83878493 156.6952642 -46.28125 159.421875 C-48.2491712 161.22878447 -49.30373906 161.64935341 -51.9375 161.9375 C-52.60652344 162.02902344 -53.27554688 162.12054688 -53.96484375 162.21484375 C-56.81637303 161.91381859 -57.97953914 161.02046086 -60 159 C-60.984375 156.3984375 -60.984375 156.3984375 -61.75 153.375 C-64.19492665 145.59825253 -67.84901615 140.16705775 -75.1875 136.3359375 C-78.09846787 135.10701475 -81.00173126 133.9944258 -84 133 C-83.70118927 134.14033691 -83.40237854 135.28067383 -83.09451294 136.45556641 C-81.99916852 140.84479553 -81.20872984 145.24702665 -80.48779297 149.7109375 C-80.35095093 150.54115921 -80.21410889 151.37138092 -80.07312012 152.22676086 C-79.62632073 154.94233339 -79.18421817 157.65864754 -78.7421875 160.375 C-78.43145345 162.26933486 -78.12042399 164.16362127 -77.80911255 166.05786133 C-76.99406345 171.0221244 -76.18300803 175.98703181 -75.37280273 180.9520874 C-74.54393048 186.02704984 -73.71125502 191.10138806 -72.87890625 196.17578125 C-71.24889638 206.11658269 -69.62310794 216.05806947 -68 226 C-67.3519162 226.00059709 -66.70383239 226.00119418 -66.03610969 226.00180936 C-27.64878994 226.0376819 10.73844894 226.09428783 49.12569566 226.17792095 C53.73207153 226.18793874 58.33844775 226.19778281 62.94482422 226.20751953 C63.86189371 226.2094609 64.77896321 226.21140228 65.72382268 226.21340248 C80.58442786 226.24444683 95.44501757 226.26140992 110.30564907 226.27319422 C125.54731983 226.28559318 140.78890932 226.31306613 156.03052878 226.35461307 C165.43993088 226.3797845 174.84919824 226.39311463 184.25863448 226.39142957 C190.70586015 226.39139988 197.15294829 226.40597567 203.6001204 226.43216428 C207.32314176 226.44685201 211.0458811 226.45497777 214.76892662 226.44580269 C218.80091297 226.43603405 222.83214864 226.45695852 226.86407471 226.48101807 C228.04694447 226.47325765 229.22981423 226.46549723 230.44852853 226.45750165 C231.52589516 226.46894924 232.6032618 226.48039683 233.71327591 226.49219131 C235.10988728 226.49446964 235.10988728 226.49446964 236.53471303 226.49679399 C239.75246334 227.15359027 240.95463903 228.48884094 243 231 C243.78135174 233.75897993 243.67831199 236.21835082 243 239 C240.625 241.5 240.625 241.5 238 243 C237.34 243 236.68 243 236 243 C236 274.35 236 305.7 236 338 C237.32 338.66 238.64 339.32 240 340 C241.75 341.125 241.75 341.125 243 343 C243.77076412 349.93687708 243.77076412 349.93687708 241.1875 353.5 C239 355 239 355 236 355 C236 374.14 236 393.28 236 413 C191.45 413 146.9 413 101 413 C100.67 414.65 100.34 416.3 100 418 C98 420 98 420 94.125 420.375 C90.97272633 420.30049171 90.15611325 420.11318211 87.5 418.1875 C86 416 86 416 86 413 C-28.84 413 -143.68 413 -262 413 C-262 382.97 -262 352.94 -262 322 C-263.65 321.67 -265.3 321.34 -267 321 C-269.10580814 317.84128779 -269.52370655 315.90072751 -269.46755981 312.13916016 C-268.89178965 309.50492053 -267.86859236 308.521013 -266.01904297 306.5859375 C-261.65179756 300.98988356 -262.14547427 295.15893739 -262.1953125 288.3125 C-262.18160614 287.01425293 -262.16789978 285.71600586 -262.15377808 284.37841797 C-262.11793587 280.95220305 -262.11734102 277.52688394 -262.12445068 274.1005249 C-262.12536764 270.59420022 -262.09244809 267.08820411 -262.0625 263.58203125 C-262.0088232 256.72130331 -261.99243336 249.86092666 -262 243 C-262.78375 242.71125 -263.5675 242.4225 -264.375 242.125 C-267 241 -267 241 -269 239 C-269.63676845 233.36005089 -269.63676845 233.36005089 -269 231 C-266.21283011 228.17689929 -264.55247026 227.07972475 -260.58925152 226.50780869 C-258.61615364 226.51333944 -258.61615364 226.51333944 -256.60319519 226.51898193 C-255.86796719 226.51556423 -255.1327392 226.51214653 -254.37523156 226.50862527 C-251.91666594 226.50204734 -249.4591971 226.52401977 -247.00073242 226.54589844 C-245.2364708 226.54702694 -243.4722073 226.546393 -241.70794678 226.54412842 C-236.92104084 226.54298045 -232.13453557 226.56650322 -227.34772277 226.59442425 C-222.34424732 226.61942404 -217.34076276 226.62177878 -212.3372345 226.62652588 C-202.86354114 226.63895982 -193.39003235 226.67178716 -183.91642028 226.71192384 C-173.13056221 226.75662846 -162.34469533 226.7786253 -151.55876768 226.79870558 C-129.37240876 226.84051937 -107.186216 226.91087964 -85 227 C-85.17539307 225.96096527 -85.35078613 224.92193054 -85.53149414 223.85140991 C-87.18481553 214.0531803 -88.83298115 204.25409556 -90.47612 194.45415306 C-91.32101144 189.41609844 -92.16770811 184.37836119 -93.01855469 179.34130859 C-93.83979819 174.47910105 -94.6562678 169.61611373 -95.4694519 164.75255203 C-95.78033014 162.89835752 -96.0929193 161.04444902 -96.40725708 159.19083786 C-96.84767 156.59199464 -97.28195573 153.99219554 -97.71484375 151.39208984 C-97.91120926 150.24625427 -97.91120926 150.24625427 -98.11154175 149.07727051 C-98.78215289 145.00664884 -99.13384048 141.12490044 -99 137 C-104.88759305 139.77063202 -108.54009265 144.56268082 -111.046875 150.46484375 C-112.35492631 154.46920839 -113.14991701 158.09264269 -113.0625 162.3125 C-113.00180605 165.8934432 -113.38106113 167.85735396 -115 171 C-116 172 -116 172 -119.75 172.375 C-123.03358734 172.30463741 -123.9146858 172.05816877 -126.75 170.125 C-128.74875241 167.34895498 -129.76067771 165.27600171 -130.9375 162.125 C-133.42420172 155.49379541 -136.70685271 150.90328896 -143.0625 147.5625 C-150.51092258 144.66589122 -158.7844393 144.92428589 -166.3125 147.4375 C-172.6160909 150.32707429 -177.46252193 155.41591179 -180.19140625 161.77734375 C-181.32139222 166.28091101 -181.39067714 170.72818486 -181.47851562 175.34179688 C-181.67781148 180.5089066 -181.67781148 180.5089066 -183.2890625 182.96484375 C-186.25658564 184.760263 -189.68419388 184.64915974 -193 184 C-196.75901621 181.89329861 -197.71060856 179.79817637 -198.9375 175.75 C-201.57390069 168.03420184 -204.70885899 163.08338619 -211.8984375 159.00390625 C-218.22494122 155.981766 -224.15895346 155.31660111 -231 157 C-233.79617322 158.13331623 -236.37928777 159.51287208 -239 161 C-239.69480469 161.29003906 -240.38960937 161.58007812 -241.10546875 161.87890625 C-243.47708572 163.2823167 -243.95396205 164.48485987 -245 167 C-245.34160156 167.60457031 -245.68320313 168.20914063 -246.03515625 168.83203125 C-249.24399454 175.01789061 -249.47550901 180.80929208 -249.53125 187.64453125 C-250 191 -250 191 -251.81640625 193.390625 C-254.89414934 195.65901526 -257.20504377 195.93342182 -261 196 C-263.8125 195 -263.8125 195 -266 193 C-273.76080903 173.59797742 -270.58842528 141.99123697 -266 122 C-265.80664062 121.13729492 -265.61328125 120.27458984 -265.4140625 119.38574219 C-259.0619612 91.90898302 -246.70197384 66.89335898 -229 45 C-228.50209961 44.38108887 -228.00419922 43.76217773 -227.49121094 43.12451172 C-197.72322295 6.44298124 -154.08850303 -16.21620708 -107.29296875 -21.58203125 C-69.44027208 -25.08296486 -33.42626803 -17.83188032 0 0 Z " fill="#070707" transform="translate(269,92)"/>
<path d="M0 0 C0.64001953 0.30921387 1.28003906 0.61842773 1.93945312 0.93701172 C17.80408285 8.64828942 31.88703795 19.35330081 46.00366211 29.82739258 C58.36339245 38.9977626 70.86902308 47.96018172 84 56 C84.60070312 56.3722168 85.20140625 56.74443359 85.8203125 57.12792969 C113.73992351 74.25643581 145.55802933 81.10627911 177.80859375 73.40625 C183.95249928 71.79773388 190.01764308 69.94518082 196.0625 68 C197.10470703 67.66806641 198.14691406 67.33613281 199.22070312 66.99414062 C200.19072266 66.66607422 201.16074219 66.33800781 202.16015625 66 C203.02261963 65.71125 203.88508301 65.4225 204.77368164 65.125 C207.45987305 63.76761761 208.55677535 62.63634921 210 60 C210.25124826 57.33238236 210.25124826 57.33238236 210 55 C214.05206611 53.54386012 218.10879734 52.10183624 222.17041016 50.67260742 C223.5510053 50.18458535 224.93025937 49.69275188 226.30810547 49.19702148 C228.29052735 48.48452162 230.27739075 47.78593286 232.265625 47.08984375 C233.45961914 46.66566162 234.65361328 46.24147949 235.88378906 45.80444336 C238.87125584 45.03323504 240.21590574 44.77652428 243 46 C243.4125 46.515625 243.825 47.03125 244.25 47.5625 C247.09129819 49.89642351 250.49466761 49.23482787 254 49 C256.36482241 48.55310443 258.71966431 48.05065561 261.0625 47.5 C277.0848988 44.18842071 293.49808796 44.80449018 309 50 C310.74023438 50.57814453 310.74023438 50.57814453 312.515625 51.16796875 C323.0892729 54.96710503 331.72906563 60.62267548 340.65234375 67.36328125 C342.97984446 69.15058573 342.97984446 69.15058573 346 70 C346 89.14 346 108.28 346 128 C301.45 128 256.9 128 211 128 C210.67 129.65 210.34 131.3 210 133 C208 135 208 135 204.125 135.375 C200.97272633 135.30049171 200.15611325 135.11318211 197.5 133.1875 C196 131 196 131 196 128 C81.16 128 -33.68 128 -152 128 C-152 97.97 -152 67.94 -152 37 C-150.02 36.01 -148.04 35.02 -146 34 C-143.89069048 31.83016398 -143.89069048 31.83016398 -142.125 29.3125 C-124.6545934 6.63047116 -97.48638857 -7.11370304 -69.48046875 -11.55859375 C-44.23171733 -14.51703331 -22.53315269 -11.16719615 0 0 Z " fill="#FDD586" transform="translate(159,377)"/>
<path d="M0 0 C99.66 0 199.32 0 302 0 C302 31.68 302 63.36 302 96 C303.32 96.66 304.64 97.32 306 98 C307.75 99.125 307.75 99.125 309 101 C309.75912409 107.83211679 309.75912409 107.83211679 307.375 111.5 C304.24692297 113.4756276 302.66980975 113.4268244 299 113 C296.65084534 111.55503729 294.63701449 110.14283145 292.5 108.4375 C276.48489193 96.36733706 257.97330728 89.57842753 237.875 89.6875 C236.87525146 89.68878906 235.87550293 89.69007813 234.84545898 89.69140625 C227.47602327 89.78595438 220.63608279 90.66007195 213.47265625 92.34375 C209.45898703 93.10223867 206.07825743 93.2511029 202 93 C201.0409375 91.948125 201.0409375 91.948125 200.0625 90.875 C199.381875 90.25625 198.70125 89.6375 198 89 C190.48020726 89.51899164 182.99410286 93.05635445 176.02148438 95.69726562 C175.17263672 96.00728516 174.32378906 96.31730469 173.44921875 96.63671875 C172.68955811 96.92248779 171.92989746 97.20825684 171.1472168 97.50268555 C168.67379435 98.07555212 167.35636593 97.90610291 165 97 C164.34 96.34 163.68 95.68 163 95 C156.21507089 94.35127225 150.91698812 96.08166906 144.5625 98.3125 C124.95486578 104.81628079 104.42599125 108.00523582 84 103 C83.02804687 102.76667969 82.05609375 102.53335938 81.0546875 102.29296875 C56.04766224 95.43013851 34.38920778 79.44430816 14 64 C13.14889648 63.54052979 12.29779297 63.08105957 11.42089844 62.60766602 C7.44744045 58.32766352 7.35294453 53.14300693 6.54296875 47.5 C6.35027908 46.27216797 6.15758942 45.04433594 5.95906067 43.77929688 C5.45215713 40.5212838 4.96411009 37.26116019 4.48461914 33.99902344 C3.99192345 30.68415714 3.47163828 27.37373051 2.95507812 24.0625 C2.20805156 19.22035698 1.46443685 14.37784789 0.74682617 9.53125 C0.60202316 8.55736328 0.45722015 7.58347656 0.30802917 6.58007812 C0 4 0 4 0 0 Z " fill="#5DD5F3" transform="translate(203,334)"/>
<path d="M0 0 C1.39599708 2.79199417 0.5826217 4.87638708 0.03970337 7.84796143 C-2.50919045 21.95507474 -2.46130706 35.95672633 -2.375 50.25 C-2.37200897 51.53616211 -2.36901794 52.82232422 -2.36593628 54.14746094 C-2.30501455 76.54721629 -1.18679571 98.71523086 1 121 C1.20115774 123.18732255 1.40063822 125.37480069 1.59765625 127.5625 C1.67636963 128.43003906 1.75508301 129.29757813 1.83618164 130.19140625 C1.91727173 131.08666016 1.91727173 131.08666016 2 132 C1.19820313 131.6390625 0.39640625 131.278125 -0.4296875 130.90625 C-12.11106759 126.13833976 -24.51834306 124.39939448 -36.5625 129.125 C-41.71123468 131.52304081 -46.31812938 134.80930614 -51 138 C-51.02477941 133.1070187 -51.04289763 128.2140742 -51.05493164 123.32104492 C-51.05995023 121.65762699 -51.06676652 119.99421344 -51.07543945 118.33081055 C-51.08761357 115.93537307 -51.09325314 113.53999409 -51.09765625 111.14453125 C-51.10281754 110.4047554 -51.10797882 109.66497955 -51.11329651 108.90278625 C-51.11370393 105.12503433 -50.83154814 101.68025018 -50 98 C-49.93298494 95.56333235 -49.91471979 93.12498258 -49.9375 90.6875 C-49.94652344 89.43324219 -49.95554687 88.17898437 -49.96484375 86.88671875 C-49.97644531 85.93410156 -49.98804687 84.98148437 -50 84 C-51.41154099 83.72251758 -52.82979799 83.47906484 -54.25 83.25 C-55.43335937 83.04117188 -55.43335937 83.04117188 -56.640625 82.828125 C-59.13062408 82.78702758 -59.13062408 82.78702758 -61.07177734 84.64306641 C-68.04326653 93.16456002 -65.45275583 112.31248537 -65.625 122.875 C-65.66327823 124.83465089 -65.70233526 126.79428673 -65.7421875 128.75390625 C-65.83709025 133.50247868 -65.92150099 138.25112924 -66 143 C-66.91171967 142.69541367 -66.91171967 142.69541367 -67.84185791 142.38467407 C-68.64460144 142.11674042 -69.44734497 141.84880676 -70.27441406 141.57275391 C-71.06785217 141.30782135 -71.86129028 141.04288879 -72.67877197 140.76992798 C-83.67813402 137.12155027 -94.57097224 136.16913216 -105.484375 140.7109375 C-108.95737929 142.49058256 -112.15370773 144.55177566 -115.3203125 146.828125 C-117 148 -117 148 -118 148 C-118.86120066 124.9868047 -112.03287254 103.45199619 -102 83 C-101.68836914 82.34837891 -101.37673828 81.69675781 -101.05566406 81.02539062 C-93.00404535 64.30869654 -81.24396416 49.90437534 -68 37 C-67.49984375 36.45472656 -66.9996875 35.90945312 -66.484375 35.34765625 C-62.04207003 30.62529292 -57.17210899 26.69352076 -52 22.8125 C-51.33572998 22.31355225 -50.67145996 21.81460449 -49.98706055 21.30053711 C-39.93698574 13.87318732 -39.93698574 13.87318732 -36 12 C-35.01 12.495 -35.01 12.495 -34 13 C-34.4125 13.54785156 -34.825 14.09570312 -35.25 14.66015625 C-42.49317602 24.60335547 -54.73680597 41.58021901 -53.74609375 54.24609375 C-53.21298087 57.11875101 -53.21298087 57.11875101 -51 59 C-48.31160615 59.26991906 -45.70858064 59.08737357 -43 59 C-40.81940075 54.70381936 -38.70427992 50.394518 -36.703125 46.01171875 C-32.24353137 36.28819416 -27.96102754 27.20553345 -21 19 C-20.29230469 18.1440625 -19.58460937 17.288125 -18.85546875 16.40625 C-13.53033531 10.2138006 -7.39814385 3.69907192 0 0 Z " fill="#DEF0FC" transform="translate(134,95)"/>
<path d="M0 0 C8.70807767 6.8509047 15.01645775 16.83431845 16.47265625 27.9453125 C17.54874159 39.41803775 15.10830138 50.50502727 8.22265625 59.88671875 C1.15180823 68.20443505 -7.53788321 74.30264276 -18.52734375 75.9453125 C-30.63585575 76.80717858 -41.97002557 75.71511525 -51.65234375 67.70703125 C-60.75270046 59.15648776 -66.88194655 50.4111381 -67.75 37.6796875 C-68.0721483 24.73772989 -65.07616009 14.27625129 -56.3359375 4.4921875 C-40.68901836 -10.67753828 -17.88676552 -12.30197686 0 0 Z " fill="#070705" transform="translate(454.52734375,49.0546875)"/>
<path d="M0 0 C23.45181519 -0.02254482 46.90362165 -0.04097788 70.35544491 -0.05181217 C81.24372177 -0.05697569 92.13199143 -0.06401944 103.02026367 -0.07543945 C112.50683569 -0.0853846 121.99340249 -0.09185302 131.47997957 -0.09408849 C136.50632755 -0.09539589 141.53266062 -0.09848356 146.55900383 -0.10573006 C151.28421897 -0.11248761 156.00941298 -0.11461751 160.73463249 -0.11310768 C162.47416295 -0.11338413 164.21369407 -0.11539082 165.95322037 -0.11920547 C168.31758985 -0.12413859 170.68187825 -0.12299972 173.04624939 -0.12025452 C173.74370724 -0.12316736 174.44116509 -0.1260802 175.15975803 -0.12908131 C179.88587879 -0.11412121 179.88587879 -0.11412121 181 1 C181.50504986 3.53875028 181.9569399 6.06764992 182.375 8.62109375 C182.56908447 9.78198265 182.56908447 9.78198265 182.76708984 10.96632385 C183.04135284 12.61288397 183.31358925 14.25978271 183.58398438 15.90698242 C183.99327706 18.39660606 184.41016789 20.88486501 184.828125 23.37304688 C186.13713556 31.2363161 187.35289879 39.04874387 188 47 C185.00392322 45.55186053 182.167081 43.93550288 179.32421875 42.20703125 C165.71563989 33.99669612 152.47607569 26.59922229 137.3125 21.6875 C136.56460205 21.44459229 135.8167041 21.20168457 135.04614258 20.95141602 C123.64543918 17.44951462 112.38447632 16.58858826 100.5 16.625 C99.79823639 16.62587616 99.09647278 16.62675232 98.3734436 16.62765503 C64.17399696 16.7679739 33.37614358 29.64069152 8.3515625 52.859375 C5.64302696 55.3249522 2.81374986 57.65520845 0 60 C0 40.2 0 20.4 0 0 Z " fill="#5BD3F0" transform="translate(7,334)"/>
<path d="M0 0 C5.494943 0.93175121 7.86535603 4.66021684 11 9 C30.39678069 39.84934974 38.83925752 78.57705509 47.0625 113.625 C47.38661865 114.97464844 47.38661865 114.97464844 47.71728516 116.3515625 C47.90468262 117.1765625 48.09208008 118.0015625 48.28515625 118.8515625 C48.44894775 119.56135254 48.61273926 120.27114258 48.78149414 121.00244141 C49.02684485 123.24541289 48.66966291 124.85984019 48 127 C47.51015625 126.71125 47.0203125 126.4225 46.515625 126.125 C36.8657707 121.33334821 24.60837776 121.30447511 14.28515625 123.953125 C8.78173859 126.14616407 0.77215693 129.45568614 -2 135 C-2.66 135 -3.32 135 -4 135 C-4.41015628 130.53844117 -4.81902776 126.07676683 -5.22680664 121.61499023 C-5.36514191 120.10324064 -5.50380328 118.59152085 -5.64282227 117.07983398 C-5.8448128 114.88273117 -6.04555345 112.68551685 -6.24609375 110.48828125 C-6.36654053 109.17384033 -6.4869873 107.85939941 -6.61108398 106.50512695 C-6.74162011 105.00349571 -6.87115569 103.50177735 -7 102 C-7.08659882 101.0276944 -7.17319763 100.05538879 -7.26242065 99.05361938 C-7.92547268 91.16655123 -8.17438458 83.33502404 -8.203125 75.421875 C-8.20882507 74.17102112 -8.21452515 72.92016724 -8.22039795 71.63140869 C-8.22977861 69.00281604 -8.23635404 66.374212 -8.24023438 63.74560547 C-8.24994085 59.77420105 -8.28103261 55.80331479 -8.3125 51.83203125 C-8.47456421 12.71184632 -8.47456421 12.71184632 0 0 Z " fill="#FB73A5" transform="translate(154,88)"/>
<path d="M0 0 C0.99 0.495 0.99 0.495 2 1 C1.5875 1.54785156 1.175 2.09570312 0.75 2.66015625 C-6.54380037 12.67285096 -18.57515191 29.43369786 -17.80859375 42.18359375 C-17.2524656 45.01839261 -17.2524656 45.01839261 -15.39453125 46.5234375 C-14 48 -14 48 -14.07421875 50.6015625 C-14.70995331 53.73569337 -15.35117632 56.86855159 -16 60 C-16.10183594 60.87398437 -16.20367187 61.74796875 -16.30859375 62.6484375 C-16.62686574 65.01386639 -16.94780155 66.85460836 -18 69 C-20.01237687 70.47462271 -21.88977882 71.37284668 -24.22265625 72.24609375 C-26.19918826 72.8577289 -26.19918826 72.8577289 -27 75 C-29.44185532 86.84218514 -29.42872722 98.83898071 -29.625 110.875 C-29.66327823 112.83465089 -29.70233526 114.79428673 -29.7421875 116.75390625 C-29.83709025 121.50247868 -29.92150099 126.25112924 -30 131 C-30.91171967 130.69541367 -30.91171967 130.69541367 -31.84185791 130.38467407 C-32.64460144 130.11674042 -33.44734497 129.84880676 -34.27441406 129.57275391 C-35.06785217 129.30782135 -35.86129028 129.04288879 -36.67877197 128.76992798 C-47.67813402 125.12155027 -58.57097224 124.16913216 -69.484375 128.7109375 C-72.95737929 130.49058256 -76.15370773 132.55177566 -79.3203125 134.828125 C-81 136 -81 136 -82 136 C-82.86120066 112.9868047 -76.03287254 91.45199619 -66 71 C-65.68836914 70.34837891 -65.37673828 69.69675781 -65.05566406 69.02539062 C-57.00404535 52.30869654 -45.24396416 37.90437534 -32 25 C-31.49984375 24.45472656 -30.9996875 23.90945312 -30.484375 23.34765625 C-26.04207003 18.62529292 -21.17210899 14.69352076 -16 10.8125 C-15.33572998 10.31355225 -14.67145996 9.81460449 -13.98706055 9.30053711 C-3.93698574 1.87318732 -3.93698574 1.87318732 0 0 Z " fill="#FB73A5" transform="translate(98,107)"/>
<path d="M0 0 C5.62876723 0.51104242 9.81947038 2.02690745 14.8125 4.625 C15.51391113 4.984729 16.21532227 5.34445801 16.93798828 5.71508789 C26.79370837 10.8698814 34.92677619 17.38122918 43 25 C43.65484375 25.59039062 44.3096875 26.18078125 44.984375 26.7890625 C64.40428565 45.00525968 89.52063466 83.83703276 91.1875 111.0625 C91.0946875 112.0215625 91.0946875 112.0215625 91 113 C90.28457031 112.7834375 89.56914062 112.566875 88.83203125 112.34375 C76.93739816 109.02002329 66.27084405 108.4159648 55 114 C50.01034561 116.9067457 45.4238341 120.28968753 41 124 C38.73767969 116.07940157 36.90123629 108.11723478 35.1875 100.0625 C32.84299613 89.28058116 30.03240164 78.77252843 26.70263672 68.25830078 C25.79165654 65.33037629 24.94943105 62.38490756 24.10839844 59.4362793 C18.15696729 38.66119923 9.87846916 19.20127444 0 0 Z " fill="#DEF0FC" transform="translate(177,89)"/>
<path d="M0 0 C29.92295168 2.34689817 60.40035186 21.12213846 81.53222656 41.58349609 C83.00492724 43.00475513 84.49742498 44.40278442 85.9921875 45.80078125 C101.2399738 60.28617824 115.39946739 79.83837311 122 100 C121.67 100.66 121.34 101.32 121 102 C120.44054687 101.7834375 119.88109375 101.566875 119.3046875 101.34375 C109.03497667 97.77741955 98.64100508 97.52302656 88.53125 101.73046875 C82.04961314 104.98128971 76.4469181 109.25140473 71 114 C69.42528223 109.8699019 67.89382888 105.73900711 66.4921875 101.546875 C55.57359591 69.00791371 39.64904676 38.52130461 15.3125 14 C14.70704346 13.38898438 14.10158691 12.77796875 13.4777832 12.1484375 C9.71639563 8.44667361 5.79129761 5.22723888 1.49291992 2.1640625 C1.00025635 1.77992187 0.50759277 1.39578125 0 1 C0 0.67 0 0.34 0 0 Z " fill="#FB5893" transform="translate(214,89)"/>
<path d="M0 0 C13.66400104 -0.46696113 25.95305442 -0.37272084 39 4 C40.16015625 4.38542969 41.3203125 4.77085937 42.515625 5.16796875 C53.0892729 8.96710503 61.72906563 14.62267548 70.65234375 21.36328125 C72.97984446 23.15058573 72.97984446 23.15058573 76 24 C76 43.14 76 62.28 76 82 C31.45 82 -13.1 82 -59 82 C-59.33 83.65 -59.66 85.3 -60 87 C-62 89 -62 89 -65.875 89.375 C-68.82095792 89.27841122 -69.94409632 89.0327241 -72.5625 87.5 C-74.39290393 84.31668882 -74.27675246 82.39180702 -73.6015625 78.84375 C-73 77 -73 77 -71.375 74.9375 C-67.91568392 73.57198049 -65.55940268 74.09397023 -62 75 C-60.0625 76.375 -60.0625 76.375 -59 78 C-59 78.99 -59 79.98 -59 81 C-27.98 81 3.04 81 35 81 C35.93533002 38.80508987 35.93533002 38.80508987 16 7 C11.03218654 2.35269063 6.76935071 1.16885002 0 1 C0 0.67 0 0.34 0 0 Z " fill="#F5C96C" transform="translate(429,423)"/>
<path d="M0 0 C4.9353473 3.71689497 8.09291899 8.79688269 9.25390625 14.8671875 C9.96121535 24.38865619 9.16629886 31.44088694 3.25390625 39.0546875 C-2.10690099 44.77664386 -9.01920186 48.05113595 -16.87109375 48.4296875 C-24.86410448 47.94909508 -31.27707691 44.26495796 -37.015625 38.82421875 C-42.87827086 32.19400301 -43.45131871 25.1199288 -43.19140625 16.46484375 C-42.34475978 9.62483145 -39.37672362 5.15188102 -34.43359375 0.4921875 C-23.84641346 -7.68675006 -10.98476447 -7.12658098 0 0 Z " fill="#FCC200" transform="translate(445.74609375,62.1328125)"/>
<path d="M0 0 C1.71400246 -0.01268921 1.71400246 -0.01268921 3.46263123 -0.02563477 C4.71726166 -0.01956207 5.97189209 -0.01348938 7.26454163 -0.00723267 C8.59838288 -0.01129752 9.93222076 -0.01663891 11.26605225 -0.02316284 C14.89007831 -0.03685409 18.51384852 -0.03153013 22.13787913 -0.02202559 C25.9290135 -0.01443671 29.72012577 -0.02147259 33.51126099 -0.02618408 C39.87925656 -0.03164457 46.24714782 -0.02444309 52.61512756 -0.01016235 C59.97752626 0.00615779 67.33967564 0.00088157 74.70206827 -0.01564157 C81.02148127 -0.0292565 87.34081921 -0.03117587 93.66024214 -0.02332556 C97.43526868 -0.01864816 101.21017805 -0.01802583 104.98519707 -0.02793503 C108.53522339 -0.03660234 112.08492849 -0.03058744 115.63492012 -0.01325226 C117.559267 -0.00739381 119.48364106 -0.01630551 121.40797424 -0.02563477 C122.55346237 -0.01717529 123.6989505 -0.00871582 124.87915039 0 C125.87447753 0.00113108 126.86980467 0.00226215 127.89529324 0.00342751 C130.95467804 0.44632997 132.32879317 1.20220032 134.50306702 3.38095093 C135.18821124 7.49181625 135.04117367 9.55069408 132.76148987 13.06806946 C127.70979716 16.653843 122.8566531 16.07014838 116.80580139 16.01205444 C115.51587784 16.01920975 114.22595428 16.02636505 112.89694214 16.03373718 C109.36576079 16.0522332 105.83533563 16.03932495 102.30418587 16.01964688 C98.60561897 16.0032437 94.90709933 16.01207559 91.20851135 16.01716614 C84.9978174 16.02168526 78.7874248 16.00582879 72.57679749 15.97787476 C65.40061 15.94582339 58.22496598 15.945839 51.04873991 15.96308953 C44.14007993 15.97896385 37.23161883 15.97221532 30.32296753 15.95515251 C27.38524061 15.94828724 24.44767337 15.94930899 21.50994873 15.95669746 C17.40643727 15.96579462 13.30376254 15.94180554 9.20033264 15.91439819 C7.37360771 15.92418701 7.37360771 15.92418701 5.50997925 15.93417358 C-2.71155965 15.84066164 -2.71155965 15.84066164 -6.75340271 13.47480774 C-8.66029153 11.18476885 -9.13291747 10.25911544 -8.99693298 7.31845093 C-8.49693298 3.38095093 -8.49693298 3.38095093 -7.30924129 1.65866661 C-4.7990978 -0.11103763 -3.05942167 0.003478 0 0 Z " fill="#080C0D" transform="translate(335.49693298339844,355.6190490722656)"/>
<path d="M0 0 C17.36583271 -1.22582349 32.69387664 4.41444443 48 12 C48.64001953 12.30921387 49.28003906 12.61842773 49.93945312 12.93701172 C65.80408285 20.64828942 79.88703795 31.35330081 94.00366211 41.82739258 C124.13248481 64.68016245 124.13248481 64.68016245 158 81 C158 81.33 158 81.66 158 82 C119.79875369 81.42039488 90.17885303 59.96722714 60.625 38.0625 C41.31574073 23.76256016 21.94474283 10.85767518 0 1 C0 0.67 0 0.34 0 0 Z " fill="#F4C86C" transform="translate(111,365)"/>
<path d="M0 0 C2.34744287 1.68023207 4.76554323 3.15199424 7.25390625 4.61328125 C9.06640625 5.80078125 9.06640625 5.80078125 10.25390625 7.61328125 C11.01303034 14.44539804 11.01303034 14.44539804 8.62890625 18.11328125 C5.50082922 20.08890885 3.923716 20.04010565 0.25390625 19.61328125 C-2.09524841 18.16831854 -4.10907926 16.7561127 -6.24609375 15.05078125 C-22.26120182 2.98061831 -40.77278647 -3.80829122 -60.87109375 -3.69921875 C-61.87084229 -3.69792969 -62.87059082 -3.69664062 -63.90063477 -3.6953125 C-71.27007048 -3.60076437 -78.11001096 -2.7266468 -85.2734375 -1.04296875 C-90.10045211 -0.13077701 -94.9640478 0.77161112 -99.24609375 -2.01171875 C-101.22807689 -5.14985873 -101.41673433 -6.7354534 -100.74609375 -10.38671875 C-97.04060162 -15.00809667 -94.08167135 -16.18325981 -88.30859375 -17.13671875 C-86.39240234 -17.46929687 -86.39240234 -17.46929687 -84.4375 -17.80859375 C-82.61025391 -18.09476562 -82.61025391 -18.09476562 -80.74609375 -18.38671875 C-79.83472656 -18.57234375 -78.92335938 -18.75796875 -77.984375 -18.94921875 C-50.73275984 -22.63098099 -22.2185435 -16.35375029 0 0 Z " fill="#080909" transform="translate(501.74609375,427.38671875)"/>
<path d="M0 0 C30.42350781 11.19456538 53.20796365 46.25990879 67 74 C67.45874512 74.90129639 67.45874512 74.90129639 67.92675781 75.82080078 C69.23507738 78.56412319 70.00257001 80.69802345 69.9765625 83.75390625 C68.67322459 86.75158345 67.25114801 87.43860111 64.375 88.9375 C59.6859169 91.53131752 55.95175937 94.39187188 52 98 C50.42528223 93.8699019 48.89382888 89.73900711 47.4921875 85.546875 C37.79609876 56.65114669 23.85610102 25.42153988 1.6796875 3.73046875 C0 2 0 2 0 0 Z " fill="#FB73A5" transform="translate(233,105)"/>
<path d="M0 0 C1.86730019 -0.0237545 1.86730019 -0.0237545 3.77232361 -0.04798889 C5.12759781 -0.04414714 6.48286907 -0.03910793 7.83813477 -0.03295898 C9.23291946 -0.03819589 10.62770061 -0.04447262 12.0224762 -0.05174255 C14.94370199 -0.06214351 17.86444059 -0.05759099 20.78564453 -0.04296875 C24.52303074 -0.02578934 28.25887831 -0.04926422 31.9960928 -0.08445835 C34.87614564 -0.10645728 37.7558318 -0.10498498 40.63594246 -0.09669304 C42.01341501 -0.09587469 43.3909148 -0.10271609 44.76830864 -0.11746407 C46.69703365 -0.13494843 48.6259805 -0.11702511 50.5546875 -0.09765625 C51.65070786 -0.09669449 52.74672821 -0.09573273 53.8759613 -0.09474182 C57.83998629 0.74480313 59.37232747 2.38380997 61.84204102 5.53344727 C61.84204102 8.99962083 61.67543547 11.34017572 59.66404724 14.22012329 C57.00510799 16.13671865 54.94537388 15.91468236 51.68994141 15.92163086 C50.42175064 15.93108734 49.15355988 15.94054382 47.84693909 15.95028687 C46.46118864 15.94491659 45.07544104 15.9387635 43.68969727 15.93188477 C42.26867015 15.93390586 40.84764405 15.93681759 39.42662048 15.94058228 C36.44821295 15.94500545 33.47007536 15.93857607 30.49169922 15.92456055 C26.67718753 15.90748383 22.86330978 15.91729967 19.04882145 15.93527794 C16.11396019 15.94612947 13.17924868 15.94266297 10.24438286 15.93489456 C8.83818931 15.93289551 7.4319821 15.93534148 6.02580452 15.94233322 C4.05838411 15.94996753 2.09091596 15.9362646 0.12353516 15.92163086 C-0.99548691 15.91924408 -2.11450897 15.9168573 -3.2674408 15.91439819 C-6.51256242 15.48671291 -7.9095183 14.8960153 -10.15795898 12.53344727 C-10.84137607 7.15153772 -10.84137607 7.15153772 -10.15795898 4.53344727 C-7.04402508 0.57785039 -4.95705742 0.02805516 0 0 Z " fill="#070909" transform="translate(294.157958984375,385.466552734375)"/>
<path d="M0 0 C6.10247718 5.44274992 8.47729071 11.49869899 9.23828125 19.5078125 C9.47906274 27.99852808 7.68519236 35.19597749 2.75 42.1875 C2.1725 42.785625 1.595 43.38375 1 44 C-2.02743854 42.66320896 -3.96868348 41.25629459 -6.125 38.75 C-6.62257813 38.18796875 -7.12015625 37.6259375 -7.6328125 37.046875 C-12.20471513 30.20208364 -11.80636398 21.88906613 -11 14 C-8.9660384 7.74098512 -5.25382685 3.78764261 0 0 Z " fill="#FDD300" transform="translate(414,61)"/>
<path d="M0 0 C3.21142855 2.37366458 4.71584605 3.93442268 5.75 7.8125 C4.58866223 12.74818554 1.49326259 15.45555408 -2 19 C-2.74507813 19.81726563 -3.49015625 20.63453125 -4.2578125 21.4765625 C-5.01835937 22.28867188 -5.77890625 23.10078125 -6.5625 23.9375 C-7.61630859 25.06478516 -7.61630859 25.06478516 -8.69140625 26.21484375 C-11.50608478 28.39133798 -13.47636141 28.7812586 -17 29 C-20.58426279 27.6151712 -21.7131889 26.57362219 -23.4375 23.125 C-24.11815914 19.34356036 -23.80059103 18.37192909 -22 15 C-19.81007307 12.43295798 -17.42326006 10.09540431 -15 7.75 C-14.03707031 6.79480469 -14.03707031 6.79480469 -13.0546875 5.8203125 C-6.37280279 -0.7497415 -6.37280279 -0.7497415 0 0 Z " fill="#050505" transform="translate(391,116)"/>
<path d="M0 0 C4.91624063 1.1567625 7.66813218 4.25684721 11.1875 7.75 C12.30318359 8.82701172 12.30318359 8.82701172 13.44140625 9.92578125 C20.08983231 16.43148618 20.08983231 16.43148618 20.4375 21.125 C20.1875 24.75 20.1875 24.75 19.0625 27.125 C16.43815402 29.39943318 14.63902438 29.68096951 11.1875 29.75 C6.33183903 27.4196217 2.68628147 23.72100394 -1.125 20 C-1.77017578 19.40445313 -2.41535156 18.80890625 -3.08007812 18.1953125 C-6.29837572 15.04853263 -7.69509277 13.55353174 -8.36328125 8.98046875 C-7.48661445 3.83860037 -5.02823036 1.34086143 0 0 Z " fill="#050505" transform="translate(469.8125,115.25)"/>
<path d="M0 0 C3.01690846 1.98512577 5.46500752 4.44100191 8 7 C8.7425 7.71800781 9.485 8.43601562 10.25 9.17578125 C16.84658079 15.61922713 16.84658079 15.61922713 17.3125 19.8125 C16.91378388 23.8794044 16.11416229 25.35296205 13 28 C8.81011855 28.70808545 6.44622493 28.96745864 2.86572266 26.57226562 C0.64509909 24.57806865 -1.40057308 22.49370133 -3.4375 20.3125 C-4.51547852 19.2306543 -4.51547852 19.2306543 -5.61523438 18.12695312 C-11.48602109 12.05659293 -11.48602109 12.05659293 -12 7 C-10.17759602 0.46971909 -6.5327062 -0.9638419 0 0 Z " fill="#050505" transform="translate(379,22)"/>
<path d="M0 0 C4.22609374 0.8804362 5.43438711 2.13422454 8 5.625 C8.66974697 9.49397801 8.56158103 13.27286507 8.4375 17.1875 C8.43169922 18.22841797 8.42589844 19.26933594 8.41992188 20.34179688 C8.28190425 28.92649288 8.28190425 28.92649288 6 32.625 C3.32366974 34.7065902 1.88246332 34.62087591 -1.5625 34.5 C-5 33.625 -5 33.625 -6.68554688 31.91186523 C-9.18682576 27.56017889 -8.51160324 22.58696646 -8.5 17.6875 C-8.52835937 16.60275391 -8.55671875 15.51800781 -8.5859375 14.40039062 C-8.60547011 6.45550316 -8.60547011 6.45550316 -5.65625 2.41015625 C-3 0.625 -3 0.625 0 0 Z " fill="#050505" transform="translate(429,132.375)"/>
<path d="M0 0 C1.55557617 -0.04930664 1.55557617 -0.04930664 3.14257812 -0.09960938 C10.75850064 -0.15341486 10.75850064 -0.15341486 14.74609375 2.77734375 C16.5625 5.4375 16.5625 5.4375 17.1875 8.4375 C16.30297782 12.68320646 15.08446896 13.86984341 11.5625 16.4375 C7.52907951 17.13553364 3.58210122 17.0442216 -0.5 16.9375 C-2.13291992 16.94136719 -2.13291992 16.94136719 -3.79882812 16.9453125 C-12.98721275 16.83222469 -12.98721275 16.83222469 -16.4375 13.4375 C-17.31031149 10.00859774 -17.76672829 7.54490423 -16.75 4.125 C-12.72063847 -1.05560768 -5.91471128 0.03296124 0 0 Z " fill="#050505" transform="translate(362.4375,74.5625)"/>
<path d="M0 0 C2.4375 1.5625 2.4375 1.5625 4 4 C4.6875 7.25 4.6875 7.25 4 11 C2.00329036 14.01014534 -0.44015017 16.46416377 -3 19 C-3.71800781 19.7425 -4.43601562 20.485 -5.17578125 21.25 C-11.64668697 27.87469324 -11.64668697 27.87469324 -16.375 28.3125 C-20 28 -20 28 -22.4375 26.4375 C-24.70159958 22.90550465 -24.7587407 21.13858566 -24 17 C-22.00329036 13.98985466 -19.55984983 11.53583623 -17 9 C-15.92298828 7.88625 -15.92298828 7.88625 -14.82421875 6.75 C-9.785545 1.59157715 -7.57119875 -0.65268955 0 0 Z " fill="#050505" transform="translate(486,22)"/>
<path d="M0 0 C1.03253906 -0.01095703 2.06507813 -0.02191406 3.12890625 -0.03320312 C7.66291951 0.01067442 10.68177805 0.10369333 14.68359375 2.34765625 C16.59779565 4.6817476 17.16116533 5.59093243 17.0625 8.5625 C17.06443359 9.5525 17.06443359 9.5525 17.06640625 10.5625 C16.24358076 13.46792519 14.81780639 14.65776078 12.5 16.5625 C9.81445312 17.08007812 9.81445312 17.08007812 6.78125 17.09375 C5.68425781 17.09890625 4.58726562 17.1040625 3.45703125 17.109375 C2.31621094 17.09390625 1.17539062 17.0784375 0 17.0625 C-1.71123047 17.08570313 -1.71123047 17.08570313 -3.45703125 17.109375 C-4.55402344 17.10421875 -5.65101563 17.0990625 -6.78125 17.09375 C-8.28268555 17.08698242 -8.28268555 17.08698242 -9.81445312 17.08007812 C-13.22041645 16.4236561 -14.4065458 15.28472159 -16.5 12.5625 C-17.18349055 8.3856133 -17.06835714 6.40342411 -14.68359375 2.875 C-9.94436619 -0.56748186 -5.70952616 -0.13186796 0 0 Z " fill="#050505" transform="translate(495.5,74.4375)"/>
<path d="M0 0 C0.66 -0.02191406 1.32 -0.04382812 2 -0.06640625 C5.39230332 1.00031413 6.26525079 2.46201622 8 5.5625 C8.58579774 9.40604275 8.55814177 13.18153664 8.5 17.0625 C8.51546875 18.09503906 8.5309375 19.12757812 8.546875 20.19140625 C8.52345159 24.72969127 8.46190974 27.73693763 6.21875 31.74609375 C3.88237182 33.65879772 2.97221409 34.2236868 0 34.125 C-0.66 34.12628906 -1.32 34.12757812 -2 34.12890625 C-4.90542519 33.30608076 -6.09526078 31.88030639 -8 29.5625 C-8.51757812 26.87695312 -8.51757812 26.87695312 -8.53125 23.84375 C-8.53640625 22.74675781 -8.5415625 21.64976563 -8.546875 20.51953125 C-8.53140625 19.37871094 -8.5159375 18.23789062 -8.5 17.0625 C-8.51546875 15.92167969 -8.5309375 14.78085938 -8.546875 13.60546875 C-8.54171875 12.50847656 -8.5365625 11.41148438 -8.53125 10.28125 C-8.52673828 9.28029297 -8.52222656 8.27933594 -8.51757812 7.24804688 C-7.62683072 2.6262443 -4.72468497 -0.0092279 0 0 Z " fill="#050505" transform="translate(429,-0.5625)"/>
<path d="M0 0 C0.33 0 0.66 0 1 0 C1 19.14 1 38.28 1 58 C-43.55 58 -88.1 58 -134 58 C-134.495 60.475 -134.495 60.475 -135 63 C-137 65 -137 65 -140.875 65.375 C-143.82095792 65.27841122 -144.94409632 65.0327241 -147.5625 63.5 C-149.39290393 60.31668882 -149.27675246 58.39180702 -148.6015625 54.84375 C-148 53 -148 53 -146.375 50.9375 C-142.91568392 49.57198049 -140.55940268 50.09397023 -137 51 C-135.0625 52.375 -135.0625 52.375 -134 54 C-134 54.99 -134 55.98 -134 57 C-89.78 57 -45.56 57 0 57 C0 38.19 0 19.38 0 0 Z " fill="#CED4A0" transform="translate(504,447)"/>
<path d="M0 0 C1.9375 1.0625 1.9375 1.0625 3 3 C3.52776637 6.56056467 3.62903915 9.74192169 2 13 C-1.2688284 14.6344142 -4.48005464 14.61493021 -8 14 C-10.5625 12.5 -10.5625 12.5 -12 10 C-12.30704776 6.08710933 -11.82148063 3.0426485 -9.375 -0.0625 C-5.91568392 -1.42801951 -3.55940268 -0.90602977 0 0 Z " fill="#090807" transform="translate(367,498)"/>
<path d="M0 0 C2.5 2.125 2.5 2.125 4 5 C3.93689022 8.15548924 3.48864121 10.13769198 1.9375 12.875 C-1.23572732 14.71751909 -4.43758579 14.66053097 -8 14 C-10.6923481 11.81246717 -10.93936827 10.41576045 -11.4375 7 C-11 4 -11 4 -9.4375 1.625 C-6.04129157 -0.63913895 -3.99900698 -0.64269755 0 0 Z " fill="#100E0B" transform="translate(38,426)"/>
<path d="M0 0 C3.4375 1 3.4375 1 5.4375 2.625 C6.89385054 6.08383253 6.35055869 8.41298371 5.4375 12 C4.3125 13.9375 4.3125 13.9375 2.4375 15 C-0.94568857 15.36248449 -3.43034865 15.58433618 -6.5 14 C-8.22410604 10.75462393 -8.18663468 7.53203487 -7.5625 4 C-5.32424706 0.32926518 -4.31620847 0 0 0 Z " fill="#0F0D0A" transform="translate(452.5625,455)"/>
<path d="M0 0 C3.5625 0.5 3.5625 0.5 6 2.125 C8.06041771 5.25683492 8.2392545 6.81544773 7.5625 10.5 C5.24512395 13.54569423 3.78424087 15.23181298 0 16.0625 C-3.33334898 15.29326562 -4.48952434 14.31374263 -6.4375 11.5 C-6.89424603 7.84603178 -6.85032332 5.44706527 -5.375 2.0625 C-3.4375 0.5 -3.4375 0.5 0 0 Z " fill="#0E0C0A" transform="translate(163.4375,410.5)"/>
<path d="M0 0 C2.70415801 2.19712839 2.94492745 3.55941961 3.375 7 C2.94492745 10.44058039 2.70415801 11.80287161 0 14 C-3.55761554 14.65964122 -6.73916234 14.63041883 -10 13 C-11.63102777 9.73794446 -11.51981506 6.56444611 -11 3 C-8.91207957 -1.17584087 -4.1132282 -0.76266106 0 0 Z " fill="#0B0A09" transform="translate(142,468)"/>
</svg>
