<?xml version="1.0" encoding="UTF-8"?>
<svg version="1.1" xmlns="http://www.w3.org/2000/svg" width="512" height="512">
<path d="M0 0 C0.79148437 -0.02578125 1.58296875 -0.0515625 2.3984375 -0.078125 C4.625 0.25 4.625 0.25 6.4140625 1.515625 C7.625 3.25 7.625 3.25 7.625 7.25 C8.28819244 7.24333817 8.95138489 7.23667633 9.63467407 7.22981262 C16.54529974 7.16337496 23.45583448 7.11816418 30.36669922 7.08520508 C32.94486171 7.07013095 35.52299862 7.04966833 38.10107422 7.02368164 C41.80963461 6.98723914 45.51785554 6.97025948 49.2265625 6.95703125 C50.37677887 6.94154739 51.52699524 6.92606354 52.71206665 6.91011047 C58.41226387 6.90891526 62.75135225 6.91762172 67.625 10.25 C72.38633476 15.17551872 71.79417405 21.59005431 71.828125 28.0234375 C71.83382507 28.8654068 71.83952515 29.7073761 71.84539795 30.57485962 C71.85481888 32.35165155 71.86137034 34.12846073 71.86523438 35.90527344 C71.87494268 38.60903659 71.90599427 41.31203987 71.9375 44.015625 C71.94403081 45.74739135 71.94928098 47.4791631 71.953125 49.2109375 C71.9654718 50.01220062 71.9778186 50.81346375 71.99053955 51.63900757 C71.9652503 58.07817638 70.80087733 62.49383294 66.7199707 67.66308594 C61.69797409 70.23806251 56.66040128 69.73804036 51.10546875 69.640625 C49.89176102 69.63496521 48.67805328 69.62930542 47.42756653 69.62347412 C43.55547456 69.60110442 39.68431176 69.55090382 35.8125 69.5 C33.18556025 69.47993591 30.55860598 69.46168499 27.93164062 69.4453125 C21.49573636 69.40123718 15.06052566 69.33220274 8.625 69.25 C8.625 75.19 8.625 81.13 8.625 87.25 C10.605 87.91 12.585 88.57 14.625 89.25 C19.6910334 92.73993412 23.11107518 97.22874501 26.9296875 102.01171875 C30.03167676 105.81266427 33.38629027 109.36879965 36.75 112.9375 C49.6223876 126.60019232 49.6223876 126.60019232 51.88199329 130.31839371 C53.47144031 132.45877447 53.47144031 132.45877447 55.99316692 132.75780869 C57.40489288 132.76333944 57.40489288 132.76333944 58.84513855 132.76898193 C59.92627426 132.78289474 61.00740997 132.79680756 62.12130737 132.81114197 C63.30741608 132.8061116 64.49352478 132.80108124 65.71557617 132.79589844 C67.58891884 132.81140495 67.58891884 132.81140495 69.50010681 132.82722473 C72.92570023 132.8516895 76.35048162 132.85848853 79.77610564 132.85750484 C83.3556465 132.8606303 86.93502402 132.88624074 90.51448059 132.90948486 C97.29299463 132.95007683 104.0714124 132.970393 110.85002929 132.98345876 C118.56708805 132.99931806 126.28398272 133.03772907 134.0009464 133.07805204 C149.87558219 133.16049464 165.75018552 133.21455939 181.625 133.25 C183.82697672 138.11756317 185.97835276 142.96587983 187.78125 147.99853516 C188.15757568 149.04358719 188.53390137 150.08863922 188.92163086 151.1653595 C189.31874268 152.27868149 189.71585449 153.39200348 190.125 154.5390625 C190.78268537 156.36913445 191.4403725 158.19920576 192.09812927 160.02925205 C192.79599176 161.97280392 193.49222648 163.91693177 194.18798828 165.86123657 C195.64126957 169.92204737 197.09934566 173.981125 198.55859375 178.03979492 C198.80458817 178.72400104 199.05058258 179.40820715 199.30403137 180.11314678 C199.80474818 181.50577272 200.30548578 182.89839119 200.8062439 184.29100227 C201.56618786 186.40478905 202.32572951 188.51872006 203.08520508 190.63267517 C207.80763741 203.77436247 212.5656977 216.9029692 217.33886719 230.02630615 C218.18628891 232.35627352 219.03330409 234.6863888 219.87988281 237.0166626 C221.06485769 240.27836279 222.25082654 243.53969868 223.4375 246.80078125 C223.80246582 247.80403442 224.16743164 248.8072876 224.54345703 249.84094238 C226.95798393 256.46264137 229.41162409 263.06869877 231.95043945 269.64387512 C233.625 274.03406038 233.625 274.03406038 233.625 276.25 C226.035 276.25 218.445 276.25 210.625 276.25 C210.625 354.13 210.625 432.01 210.625 512.25 C104.95686545 512.4113254 104.95686545 512.4113254 60.84765625 512.4453125 C50.75146458 512.45314393 40.65527316 512.46122584 30.55908203 512.46972656 C29.29369752 512.47078156 28.028313 512.47183655 26.72458351 512.47292352 C6.29874707 512.49031841 -14.12704431 512.52185241 -34.55285403 512.55861118 C-55.51689922 512.59602379 -76.48092082 512.61823654 -97.44499803 512.62635398 C-110.37984549 512.63184107 -123.31456562 512.64916864 -136.24937388 512.68166587 C-145.12053177 512.70281765 -153.99162388 512.70919851 -162.86280516 512.70400551 C-167.98020246 512.7014448 -173.09737733 512.70535678 -178.21473503 512.7268219 C-182.90445253 512.7463492 -187.59379892 512.74722997 -192.28353384 512.73359558 C-193.97553369 512.73191154 -195.6675571 512.73693321 -197.35951087 512.74953273 C-212.09674326 512.85285028 -224.17431445 510.52159642 -235.375 500.25 C-244.76879373 489.68790251 -248.72017677 478.65393067 -248.59375 464.66796875 C-247.74166434 451.35413032 -241.83345768 441.34291342 -232.375 432.25 C-225.92744945 426.9565721 -218.82633075 423.25 -210.375 423.25 C-210.375 374.74 -210.375 326.23 -210.375 276.25 C-217.965 276.25 -225.555 276.25 -233.375 276.25 C-229.99895711 264.99652371 -229.99895711 264.99652371 -228.53173828 260.87866211 C-228.19855087 259.94011887 -227.86536346 259.00157562 -227.52207947 258.03459167 C-227.16674637 257.04219986 -226.81141327 256.04980804 -226.4453125 255.02734375 C-226.06246597 253.95273392 -225.67961945 252.87812408 -225.28517151 251.77095032 C-224.026471 248.24204548 -222.76350267 244.71468807 -221.5 241.1875 C-221.06547516 239.97179321 -220.63095032 238.75608643 -220.18325806 237.50354004 C-212.4103906 215.76280303 -204.47270568 194.08471914 -196.44384766 172.43725586 C-196.02296371 171.30088181 -195.60207977 170.16450775 -195.16844177 168.99369812 C-194.40030928 166.92057772 -193.63070949 164.84799983 -192.85902405 162.77619934 C-189.22976084 152.98171032 -185.80710106 143.11487084 -182.375 133.25 C-181.71846467 133.25498599 -181.06192934 133.25997198 -180.385499 133.26510906 C-164.38434721 133.38282981 -148.38430708 133.43947504 -132.38277531 133.42878246 C-124.64431298 133.42507258 -116.90691417 133.44176435 -109.16870117 133.50708008 C-102.42115497 133.5639815 -95.67479508 133.58199722 -88.92704767 133.5540064 C-85.35608374 133.54053338 -81.78750296 133.54606352 -78.21684456 133.59822655 C-74.22248174 133.65584866 -70.23314219 133.62660428 -66.23852539 133.59057617 C-65.0646376 133.62077347 -63.89074982 133.65097076 -62.68128967 133.68208313 C-57.59798186 133.57310314 -54.5773118 133.3306711 -50.71020317 129.8548069 C-48.42781955 127.07415608 -46.39856186 124.22165494 -44.375 121.25 C-43.17018672 119.86795572 -41.94366122 118.5039348 -40.6796875 117.17578125 C-40.1125 116.57507813 -39.5453125 115.974375 -38.9609375 115.35546875 C-38.39632812 114.76378906 -37.83171875 114.17210938 -37.25 113.5625 C-36.03817896 112.27817684 -34.82723071 110.99302956 -33.6171875 109.70703125 C-33.05354492 109.10842285 -32.48990234 108.50981445 -31.90917969 107.89306641 C-28.42446715 104.16103022 -25.05841731 100.32321623 -21.83984375 96.359375 C-18.66858739 92.49871508 -15.76507729 89.68893183 -11.375 87.25 C-10.385 87.25 -9.395 87.25 -8.375 87.25 C-8.38499275 85.74449333 -8.38499275 85.74449333 -8.39518738 84.20857239 C-8.45601525 74.74768382 -8.5009807 65.28683496 -8.53043652 55.82579517 C-8.54608917 50.96182413 -8.5673202 46.09801101 -8.60131836 41.23413086 C-8.63392598 36.53978105 -8.65185603 31.8455831 -8.65963173 27.15112877 C-8.66517271 25.36056821 -8.67599291 23.57001591 -8.69219017 21.77952003 C-8.71398321 19.27055557 -8.71696616 16.76221779 -8.71557617 14.25317383 C-8.726362 13.51374039 -8.73714783 12.77430695 -8.7482605 12.01246643 C-8.70785822 5.26809723 -7.09798047 0.13782486 0 0 Z " fill="#F5E166" transform="translate(263.375,-0.25)"/>
<path d="M0 0 C0.79148437 -0.02578125 1.58296875 -0.0515625 2.3984375 -0.078125 C4.625 0.25 4.625 0.25 6.4140625 1.515625 C7.625 3.25 7.625 3.25 7.625 7.25 C8.28819244 7.24333817 8.95138489 7.23667633 9.63467407 7.22981262 C16.54529974 7.16337496 23.45583448 7.11816418 30.36669922 7.08520508 C32.94486171 7.07013095 35.52299862 7.04966833 38.10107422 7.02368164 C41.80963461 6.98723914 45.51785554 6.97025948 49.2265625 6.95703125 C50.37677887 6.94154739 51.52699524 6.92606354 52.71206665 6.91011047 C58.41226387 6.90891526 62.75135225 6.91762172 67.625 10.25 C72.38633476 15.17551872 71.79417405 21.59005431 71.828125 28.0234375 C71.83382507 28.8654068 71.83952515 29.7073761 71.84539795 30.57485962 C71.85481888 32.35165155 71.86137034 34.12846073 71.86523438 35.90527344 C71.87494268 38.60903659 71.90599427 41.31203987 71.9375 44.015625 C71.94403081 45.74739135 71.94928098 47.4791631 71.953125 49.2109375 C71.9654718 50.01220062 71.9778186 50.81346375 71.99053955 51.63900757 C71.9652503 58.07817638 70.80087733 62.49383294 66.7199707 67.66308594 C61.69797409 70.23806251 56.66040128 69.73804036 51.10546875 69.640625 C49.89176102 69.63496521 48.67805328 69.62930542 47.42756653 69.62347412 C43.55547456 69.60110442 39.68431176 69.55090382 35.8125 69.5 C33.18556025 69.47993591 30.55860598 69.46168499 27.93164062 69.4453125 C21.49573636 69.40123718 15.06052566 69.33220274 8.625 69.25 C8.625 75.19 8.625 81.13 8.625 87.25 C11.595 88.24 11.595 88.24 14.625 89.25 C19.6910334 92.73993412 23.11107518 97.22874501 26.9296875 102.01171875 C30.03167676 105.81266427 33.38629027 109.36879965 36.75 112.9375 C49.6223876 126.60019232 49.6223876 126.60019232 51.88199329 130.31839371 C53.47144031 132.45877447 53.47144031 132.45877447 55.99316692 132.75780869 C57.40489288 132.76333944 57.40489288 132.76333944 58.84513855 132.76898193 C59.92627426 132.78289474 61.00740997 132.79680756 62.12130737 132.81114197 C63.30741608 132.8061116 64.49352478 132.80108124 65.71557617 132.79589844 C67.58891884 132.81140495 67.58891884 132.81140495 69.50010681 132.82722473 C72.92570023 132.8516895 76.35048162 132.85848853 79.77610564 132.85750484 C83.3556465 132.8606303 86.93502402 132.88624074 90.51448059 132.90948486 C97.29299463 132.95007683 104.0714124 132.970393 110.85002929 132.98345876 C118.56708805 132.99931806 126.28398272 133.03772907 134.0009464 133.07805204 C149.87558219 133.16049464 165.75018552 133.21455939 181.625 133.25 C183.82697672 138.11756317 185.97835276 142.96587983 187.78125 147.99853516 C188.15757568 149.04358719 188.53390137 150.08863922 188.92163086 151.1653595 C189.31874268 152.27868149 189.71585449 153.39200348 190.125 154.5390625 C190.78268537 156.36913445 191.4403725 158.19920576 192.09812927 160.02925205 C192.79599176 161.97280392 193.49222648 163.91693177 194.18798828 165.86123657 C195.64126957 169.92204737 197.09934566 173.981125 198.55859375 178.03979492 C198.80458817 178.72400104 199.05058258 179.40820715 199.30403137 180.11314678 C199.80474818 181.50577272 200.30548578 182.89839119 200.8062439 184.29100227 C201.56618786 186.40478905 202.32572951 188.51872006 203.08520508 190.63267517 C207.80763741 203.77436247 212.5656977 216.9029692 217.33886719 230.02630615 C218.18628891 232.35627352 219.03330409 234.6863888 219.87988281 237.0166626 C221.06485769 240.27836279 222.25082654 243.53969868 223.4375 246.80078125 C223.80246582 247.80403442 224.16743164 248.8072876 224.54345703 249.84094238 C226.95798393 256.46264137 229.41162409 263.06869877 231.95043945 269.64387512 C233.625 274.03406038 233.625 274.03406038 233.625 276.25 C213.165 276.25 192.705 276.25 171.625 276.25 C171.295 278.89 170.965 281.53 170.625 284.25 C168.3087134 291.64717335 163.37115068 296.04451974 156.8515625 299.8828125 C150.39526508 302.61853174 142.51058481 302.49601032 135.84765625 300.359375 C128.03355359 296.15470388 122.34735534 288.87127758 116.625 282.25 C115.965 281.50105469 115.305 280.75210937 114.625 279.98046875 C113.5191787 278.72362093 112.4186995 277.46204809 111.32421875 276.1953125 C109.33093572 273.9133471 107.29006973 271.67771426 105.25 269.4375 C102.19641133 266.06059018 99.28070795 262.61782868 96.4375 259.0625 C91.53496514 252.99679782 86.20241963 247.36835023 80.85546875 241.6953125 C77.9114525 238.56881938 75.0539331 235.38117158 72.25390625 232.125 C70.28834911 229.86248819 68.26826691 227.65309317 66.25 225.4375 C63.19641133 222.06059018 60.28070795 218.61782868 57.4375 215.0625 C52.53496514 208.99679782 47.20241963 203.36835023 41.85546875 197.6953125 C38.9114525 194.56881938 36.0539331 191.38117158 33.25390625 188.125 C31.28834911 185.86248819 29.26826691 183.65309317 27.25 181.4375 C24.17753227 178.03916448 21.24057378 174.57409477 18.375 171 C14.63906688 166.38463484 10.71913262 161.98094026 6.6875 157.625 C6.1193457 157.00850586 5.55119141 156.39201172 4.96582031 155.75683594 C2.12067396 152.59343433 2.12067396 152.59343433 -1.375 150.25 C-1.58769531 150.78109375 -1.80039062 151.3121875 -2.01953125 151.859375 C-3.89747598 155.17148502 -6.45541823 157.75932368 -9.0625 160.5 C-10.15701327 161.66725351 -11.25076745 162.83521929 -12.34375 164.00390625 C-12.8696875 164.56480957 -13.395625 165.12571289 -13.9375 165.70361328 C-16.24121497 168.1818284 -18.45432331 170.73461939 -20.66796875 173.29296875 C-22.71133431 175.6355915 -24.79180859 177.94273422 -26.875 180.25 C-31.67407792 185.57334693 -36.4157795 190.93863339 -41.0546875 196.40234375 C-46.64941739 202.98318179 -52.33235112 209.44765898 -58.21875 215.76953125 C-61.43789955 219.22713632 -64.58744243 222.73029051 -67.67578125 226.3046875 C-69.66906428 228.5866529 -71.70993027 230.82228574 -73.75 233.0625 C-76.80358867 236.43940982 -79.71929205 239.88217132 -82.5625 243.4375 C-87.46904731 249.50816662 -92.80700617 255.14068915 -98.15625 260.8203125 C-101.66435005 264.54666763 -105.05497691 268.35535753 -108.375 272.25 C-111.88064691 276.35612691 -115.39139363 280.45770892 -118.91455078 284.54882812 C-120.25049208 286.10496971 -121.57691841 287.66926687 -122.90234375 289.234375 C-128.81769414 296.06989101 -134.01663745 300.65416951 -143.29296875 301.5234375 C-152.03502285 301.79499474 -157.62184493 300.5539558 -164.15234375 294.640625 C-169.28765151 289.1663116 -171.375 283.70945439 -171.375 276.25 C-191.835 276.25 -212.295 276.25 -233.375 276.25 C-229.99895711 264.99652371 -229.99895711 264.99652371 -228.53173828 260.87866211 C-228.19855087 259.94011887 -227.86536346 259.00157562 -227.52207947 258.03459167 C-227.16674637 257.04219986 -226.81141327 256.04980804 -226.4453125 255.02734375 C-226.06246597 253.95273392 -225.67961945 252.87812408 -225.28517151 251.77095032 C-224.026471 248.24204548 -222.76350267 244.71468807 -221.5 241.1875 C-221.06547516 239.97179321 -220.63095032 238.75608643 -220.18325806 237.50354004 C-212.4103906 215.76280303 -204.47270568 194.08471914 -196.44384766 172.43725586 C-196.02296371 171.30088181 -195.60207977 170.16450775 -195.16844177 168.99369812 C-194.40030928 166.92057772 -193.63070949 164.84799983 -192.85902405 162.77619934 C-189.22976084 152.98171032 -185.80710106 143.11487084 -182.375 133.25 C-181.71846467 133.25498599 -181.06192934 133.25997198 -180.385499 133.26510906 C-164.38434721 133.38282981 -148.38430708 133.43947504 -132.38277531 133.42878246 C-124.64431298 133.42507258 -116.90691417 133.44176435 -109.16870117 133.50708008 C-102.42115497 133.5639815 -95.67479508 133.58199722 -88.92704767 133.5540064 C-85.35608374 133.54053338 -81.78750296 133.54606352 -78.21684456 133.59822655 C-74.22248174 133.65584866 -70.23314219 133.62660428 -66.23852539 133.59057617 C-65.0646376 133.62077347 -63.89074982 133.65097076 -62.68128967 133.68208313 C-57.59798186 133.57310314 -54.5773118 133.3306711 -50.71020317 129.8548069 C-48.42781955 127.07415608 -46.39856186 124.22165494 -44.375 121.25 C-43.17018672 119.86795572 -41.94366122 118.5039348 -40.6796875 117.17578125 C-40.1125 116.57507813 -39.5453125 115.974375 -38.9609375 115.35546875 C-38.39632812 114.76378906 -37.83171875 114.17210938 -37.25 113.5625 C-36.03817896 112.27817684 -34.82723071 110.99302956 -33.6171875 109.70703125 C-33.05354492 109.10842285 -32.48990234 108.50981445 -31.90917969 107.89306641 C-28.42446715 104.16103022 -25.05841731 100.32321623 -21.83984375 96.359375 C-18.66858739 92.49871508 -15.76507729 89.68893183 -11.375 87.25 C-10.385 87.25 -9.395 87.25 -8.375 87.25 C-8.38499275 85.74449333 -8.38499275 85.74449333 -8.39518738 84.20857239 C-8.45601525 74.74768382 -8.5009807 65.28683496 -8.53043652 55.82579517 C-8.54608917 50.96182413 -8.5673202 46.09801101 -8.60131836 41.23413086 C-8.63392598 36.53978105 -8.65185603 31.8455831 -8.65963173 27.15112877 C-8.66517271 25.36056821 -8.67599291 23.57001591 -8.69219017 21.77952003 C-8.71398321 19.27055557 -8.71696616 16.76221779 -8.71557617 14.25317383 C-8.726362 13.51374039 -8.73714783 12.77430695 -8.7482605 12.01246643 C-8.70785822 5.26809723 -7.09798047 0.13782486 0 0 Z " fill="#D94A53" transform="translate(263.375,-0.25)"/>
<path d="M0 0 C4.42753197 1.64022371 7.0974958 5.0298782 10.1875 8.4375 C10.76701416 9.06857666 11.34652832 9.69965332 11.94360352 10.34985352 C15.99003779 14.79155486 19.79656009 19.3870834 23.55078125 24.078125 C27.75261076 29.09083389 32.2846868 33.79618325 36.76953125 38.5546875 C39.7135475 41.68118062 42.5710669 44.86882842 45.37109375 48.125 C47.33665089 50.38751181 49.35673309 52.59690683 51.375 54.8125 C54.42858867 58.18940982 57.34429205 61.63217132 60.1875 65.1875 C65.09003486 71.25320218 70.42258037 76.88164977 75.76953125 82.5546875 C78.7135475 85.68118062 81.5710669 88.86882842 84.37109375 92.125 C86.33665089 94.38751181 88.35673309 96.59690683 90.375 98.8125 C93.42858867 102.18940982 96.34429205 105.63217132 99.1875 109.1875 C104.08655332 115.24889462 109.41512745 120.8735229 114.7578125 126.54296875 C118.80249497 130.83856491 122.82606732 135.17863928 126.4296875 139.85546875 C131.1272409 145.80993509 135.91648236 149.40896455 143.5625 150.515625 C152.20661209 150.8990332 158.39756666 149.74679884 165 144 C170.33284953 138.80918762 170.96349131 133.46719853 173 126 C185.87 126 198.74 126 212 126 C212 203.88 212 281.76 212 362 C190.88 362 169.76 362 148 362 C147.67 337.25 147.34 312.5 147 287 C158.88 286.505 158.88 286.505 171 286 C175.15811388 283.47434165 175.15811388 283.47434165 176 280 C176.1122935 276.99341003 176.16772089 274.00941937 176.17700195 271.00219727 C176.18357315 270.08159515 176.19014435 269.16099304 176.19691467 268.2124939 C176.21663841 265.16379721 176.22830621 262.11514968 176.23828125 259.06640625 C176.24235678 258.02605665 176.2464323 256.98570705 176.25063133 255.91383171 C176.27148484 250.41089959 176.28579154 244.90799238 176.29516602 239.4050293 C176.30624873 233.71400215 176.34067225 228.02336403 176.38033772 222.33247471 C176.40644002 217.96163693 176.414852 213.59089293 176.41844749 209.21998405 C176.42332742 207.12157491 176.43498113 205.02317034 176.45348549 202.92483711 C176.47774832 199.99197303 176.47693581 197.06013028 176.4699707 194.12719727 C176.48278076 193.25797134 176.49559082 192.38874542 176.50878906 191.49317932 C176.47640398 186.63790516 176.47640398 186.63790516 174.1424408 182.46366882 C171.35684517 180.56061065 169.50028999 180.45918959 166.140625 180.390625 C164.46806641 180.34228516 164.46806641 180.34228516 162.76171875 180.29296875 C161.60285156 180.27878906 160.44398438 180.26460937 159.25 180.25 C158.07566406 180.22035156 156.90132813 180.19070313 155.69140625 180.16015625 C152.79420178 180.08949273 149.89780045 180.03677734 147 180 C147 181.98 147 183.96 147 186 C140.11080087 186.68891991 135.52061667 183.76979468 130.0625 179.9375 C126.48274348 176.77776824 123.66503047 172.95797885 120.6953125 169.23828125 C117.59332933 165.43734319 114.23878545 161.88111857 110.875 158.3125 C106.71318138 153.89698561 102.58595342 149.47667892 98.62890625 144.875 C96.66334911 142.61248819 94.64326691 140.40309317 92.625 138.1875 C89.57141133 134.81059018 86.65570795 131.36782868 83.8125 127.8125 C78.90711309 121.7432691 73.57047734 116.11202062 68.22265625 110.43359375 C64.71332024 106.70586343 61.31283862 102.90338812 58 99 C57.33194336 98.21351074 57.33194336 98.21351074 56.65039062 97.41113281 C53.42630416 93.61355102 50.21079316 89.80882516 47 86 C46.85304688 87.23363281 46.85304688 87.23363281 46.703125 88.4921875 C45.20091698 99.70694736 42.43896791 108.37223819 35 117 C34.49855469 117.60714844 33.99710938 118.21429688 33.48046875 118.83984375 C26.32999584 126.7906129 15.56110393 131.3883171 5.01953125 132.37109375 C-6.88899619 132.7136236 -16.30719653 130.38499312 -26 123 C-26.969375 122.319375 -27.93875 121.63875 -28.9375 120.9375 C-37.80447883 113.30398542 -42.43162625 101.11651961 -43.75 89.75 C-43.8325 88.5125 -43.915 87.275 -44 86 C-49.48567796 91.95191099 -54.9663325 97.90011015 -60.265625 104.01953125 C-62.27264538 106.31133155 -64.32402851 108.55996752 -66.375 110.8125 C-69.42858867 114.18940982 -72.34429205 117.63217132 -75.1875 121.1875 C-80.09404731 127.25816662 -85.43200617 132.89068915 -90.78125 138.5703125 C-94.7225832 142.75685422 -98.50967411 147.05498816 -102.22216797 151.4453125 C-108.14049554 158.44334924 -114.14058108 165.34295108 -120.375 172.0625 C-120.94549072 172.68133057 -121.51598145 173.30016113 -122.10375977 173.93774414 C-128.00548078 180.24677797 -133.23534087 185.78649411 -142.375 186.125 C-143.24125 186.08375 -144.1075 186.0425 -145 186 C-145 184.02 -145 182.04 -145 180 C-149.10520809 180.0517332 -153.20828913 180.14677764 -157.3125 180.25 C-159.06336914 180.27126953 -159.06336914 180.27126953 -160.84960938 180.29296875 C-161.96787109 180.32519531 -163.08613281 180.35742188 -164.23828125 180.390625 C-165.26993408 180.41157227 -166.30158691 180.43251953 -167.36450195 180.45410156 C-170.05876402 180.76294832 -170.05876402 180.76294832 -171.6466217 182.62728882 C-173.43067941 185.75505707 -173.33909975 187.91646383 -173.28955078 191.50927734 C-173.2852858 192.15371292 -173.28102081 192.7981485 -173.27662659 193.46211243 C-173.2663468 194.85735247 -173.24966991 196.25255694 -173.22729874 197.64765549 C-173.19496893 199.85944214 -173.18635027 202.07012453 -173.18502808 204.28213501 C-173.17942471 210.56913077 -173.15035975 216.85522737 -173.05859375 223.14160156 C-173.00408819 226.99171073 -172.99351592 230.83986937 -173.01073837 234.69029617 C-173.00879948 236.15356571 -172.99039401 237.61691288 -172.95492935 239.07975388 C-172.68492308 250.5443843 -172.68492308 250.5443843 -175.93841553 254.14556885 C-178.23001387 255.66430523 -180.53170692 256.80100999 -183 258 C-186.82805938 261.2557655 -189.71385971 264.4406946 -192.0625 268.875 C-195 272 -195 272 -209 273 C-209 224.49 -209 175.98 -209 126 C-196.13 126 -183.26 126 -170 126 C-169.01 129.63 -168.02 133.26 -167 137 C-164.61669718 141.3693885 -162.08840333 144.17705485 -158 147 C-157.175 147.5775 -156.35 148.155 -155.5 148.75 C-148.91607424 151.10140206 -141.21751567 151.05648409 -134.5625 148.8125 C-127.48426032 145.21129034 -123.04266801 139.97232189 -118 134 C-116.1079226 131.76762091 -114.21164785 129.53886692 -112.3125 127.3125 C-111.54715942 126.41519165 -111.54715942 126.41519165 -110.76635742 125.49975586 C-106.19567251 120.17048642 -101.44926005 115.01865653 -96.66796875 109.87890625 C-92.4325365 105.3086082 -88.36473809 100.60835337 -84.33203125 95.859375 C-78.73207562 89.27580547 -73.0463913 82.8063603 -67.15625 76.48046875 C-63.93710045 73.02286368 -60.78755757 69.51970949 -57.69921875 65.9453125 C-55.70593572 63.6633471 -53.66506973 61.42771426 -51.625 59.1875 C-48.57141133 55.81059018 -45.65570795 52.36782868 -42.8125 48.8125 C-37.90996514 42.74679782 -32.57741963 37.11835023 -27.23046875 31.4453125 C-24.28771109 28.32015598 -21.43108276 25.13418045 -18.6328125 21.87890625 C-16.64638535 19.59308937 -14.60300679 17.36264049 -12.5625 15.125 C-8.15713117 10.25033071 -4.04273952 5.17735034 0 0 Z " fill="#E9B04D" transform="translate(262,150)"/>
<path d="M0 0 C19.47 0 38.94 0 59 0 C59.0825 9.6525 59.165 19.305 59.25 29.25 C59.28641602 32.29379883 59.32283203 35.33759766 59.36035156 38.47363281 C59.37203288 40.88345636 59.38222601 43.29328778 59.390625 45.703125 C59.41108887 46.95657715 59.43155273 48.2100293 59.45263672 49.50146484 C59.45336182 51.29753174 59.45336182 51.29753174 59.45410156 53.12988281 C59.46298401 54.16912903 59.47186646 55.20837524 59.48101807 56.27911377 C58.87584502 59.70228457 57.66488355 60.84480423 55 63 C52.65061112 64.17469444 51.04926795 64.20034889 48.4296875 64.31640625 C47.53378906 64.35830078 46.63789063 64.40019531 45.71484375 64.44335938 C44.77769531 64.48267578 43.84054688 64.52199219 42.875 64.5625 C41.93011719 64.60568359 40.98523438 64.64886719 40.01171875 64.69335938 C37.67462908 64.79959072 35.3374317 64.90163176 33 65 C33.47050781 65.66644531 33.94101563 66.33289063 34.42578125 67.01953125 C41.98790681 78.21398213 44.76270117 89.55690917 43 103 C40.97467174 111.04938155 37.51862174 117.82570043 32 124 C31.49984375 124.60328125 30.9996875 125.2065625 30.484375 125.828125 C23.82296716 133.26561919 13.30745037 138.48165681 3.30768776 139.19097519 C-0.00612631 139.27425703 -3.31476599 139.29307154 -6.62963867 139.29052734 C-8.5188353 139.30060318 -8.5188353 139.30060318 -10.44619751 139.31088257 C-13.88658129 139.32847725 -17.32686544 139.33323528 -20.76728988 139.33451414 C-22.92244408 139.33594046 -25.07757335 139.34021921 -27.23272133 139.34550858 C-34.76787535 139.36399004 -42.30295883 139.3721819 -49.83813477 139.37060547 C-56.83468583 139.36940585 -63.83092753 139.39047751 -70.82740039 139.4220928 C-76.85571927 139.44835124 -82.88393774 139.45896872 -88.91231328 139.45769465 C-92.50316311 139.45718765 -96.09373798 139.46272383 -99.68453026 139.48405075 C-103.69769364 139.50723698 -107.71017614 139.49785421 -111.72338867 139.48583984 C-112.89419479 139.49707886 -114.06500092 139.50831787 -115.27128601 139.51989746 C-128.01029798 139.42350201 -138.56545176 135.65195899 -148 127 C-157.39379373 116.43790251 -161.34517677 105.40393067 -161.21875 91.41796875 C-160.36666434 78.10413032 -154.45845768 68.09291342 -145 59 C-138.27255789 53.47678161 -131.39442604 50.22100372 -122.67578125 49.6953125 C-114.15392157 49.51387517 -114.15392157 49.51387517 -106.6328125 46.19140625 C-104.96155008 43.95293429 -104.96155008 43.95293429 -103.54296875 41.5078125 C-98.21393666 32.84644895 -89.12032435 27.81951839 -80 24 C-79.23558594 23.6596875 -78.47117187 23.319375 -77.68359375 22.96875 C-63.38940423 17.59910663 -45.4653514 20.60017143 -31.8984375 26.51171875 C-22.89609215 31.13421684 -12.60317287 39.79365425 -8 49 C-5.36 49.33 -2.72 49.66 0 50 C0 33.5 0 17 0 0 Z " fill="#78CF90" transform="translate(176,373)"/>
<path d="M0 0 C41.91 0 83.82 0 127 0 C131.49956625 10.12402406 131.49956625 10.12402406 133.15625 14.74853516 C133.53257568 15.79358719 133.90890137 16.83863922 134.29663086 17.9153595 C134.69374268 19.02868149 135.09085449 20.14200348 135.5 21.2890625 C136.15768537 23.11913445 136.8153725 24.94920576 137.47312927 26.77925205 C138.17099176 28.72280392 138.86722648 30.66693177 139.56298828 32.61123657 C141.01626957 36.67204737 142.47434566 40.731125 143.93359375 44.78979492 C144.17958817 45.47400104 144.42558258 46.15820715 144.67903137 46.86314678 C145.17974818 48.25577272 145.68048578 49.64839119 146.1812439 51.04100227 C146.94118786 53.15478905 147.70072951 55.26872006 148.46020508 57.38267517 C153.18263741 70.52436247 157.9406977 83.6529692 162.71386719 96.77630615 C163.56128891 99.10627352 164.40830409 101.4363888 165.25488281 103.7666626 C166.43985769 107.02836279 167.62582654 110.28969868 168.8125 113.55078125 C169.17746582 114.55403442 169.54243164 115.5572876 169.91845703 116.59094238 C172.33298393 123.21264137 174.78662409 129.81869877 177.32543945 136.39387512 C179 140.78406038 179 140.78406038 179 143 C158.54 143 138.08 143 117 143 C116.01 138.545 116.01 138.545 115 134 C111.75850009 126.98616222 105.8914599 121.40862932 100.65625 115.83203125 C96.40201566 111.2962667 92.35255451 106.59494815 88.328125 101.85546875 C82.25625265 94.71586036 76.0514743 87.74099065 69.66796875 80.87890625 C65.4325365 76.3086082 61.36473809 71.60835337 57.33203125 66.859375 C51.73207562 60.27580547 46.0463913 53.8063603 40.15625 47.48046875 C36.94030561 44.02630626 33.79482045 40.52564408 30.70703125 36.95703125 C28.66366569 34.6144085 26.58319141 32.30726578 24.5 30 C20.62484866 25.7015128 16.79082924 21.37291434 13 17 C12.52030762 16.4519873 12.04061523 15.90397461 11.54638672 15.33935547 C9.90139965 13.4592991 8.26284442 11.57378014 6.625 9.6875 C6.08834717 9.07616211 5.55169434 8.46482422 4.9987793 7.83496094 C2.76013971 5.24553532 1.09340371 3.28021114 0 0 Z " fill="#C32430" transform="translate(318,133)"/>
<path d="M0 0 C42.24 0 84.48 0 128 0 C126.04248714 3.91502572 123.77242184 6.62337791 120.8125 9.75 C119.81051284 10.82488262 118.80920995 11.90040352 117.80859375 12.9765625 C117.32374512 13.49637695 116.83889648 14.01619141 116.33935547 14.55175781 C114.08503483 16.98934987 111.91722515 19.49975473 109.7421875 22.0078125 C107.68499601 24.36020635 105.59403085 26.68034966 103.5 29 C98.70092208 34.32334693 93.9592205 39.68863339 89.3203125 45.15234375 C83.25201893 52.2902142 77.04897817 59.26169262 70.66796875 66.12109375 C66.4325365 70.6913918 62.36473809 75.39164663 58.33203125 80.140625 C52.73207562 86.72419453 47.0463913 93.1936397 41.15625 99.51953125 C37.94085322 102.97310557 34.79393664 106.47120145 31.7109375 110.04296875 C29.65489924 112.39473854 27.5443442 114.69367055 25.4375 117 C18.0069504 125.26601174 12.8643252 131.81404882 11 143 C-9.46 143 -29.92 143 -51 143 C-47.62395711 131.74652371 -47.62395711 131.74652371 -46.15673828 127.62866211 C-45.65695717 126.22084724 -45.65695717 126.22084724 -45.14707947 124.78459167 C-44.79174637 123.79219986 -44.43641327 122.79980804 -44.0703125 121.77734375 C-43.68746597 120.70273392 -43.30461945 119.62812408 -42.91017151 118.52095032 C-41.651471 114.99204548 -40.38850267 111.46468807 -39.125 107.9375 C-38.69047516 106.72179321 -38.25595032 105.50608643 -37.80825806 104.25354004 C-30.0353906 82.51280303 -22.09770568 60.83471914 -14.06884766 39.18725586 C-13.64796371 38.05088181 -13.22707977 36.91450775 -12.79344177 35.74369812 C-12.02530928 33.67057772 -11.25570949 31.59799983 -10.48402405 29.52619934 C-6.85308175 19.72717885 -3.4544981 9.86999457 0 0 Z " fill="#C32430" transform="translate(81,133)"/>
<path d="M0 0 C1.11632812 -0.00478363 2.23265625 -0.00956726 3.3828125 -0.01449585 C5.72918111 -0.01787909 8.07559788 -0.00878801 10.421875 0.01220703 C13.99066383 0.03899243 17.55630771 0.01240226 21.125 -0.01953125 C23.41667353 -0.01622688 25.70834513 -0.00982008 28 0 C29.05445313 -0.01012115 30.10890625 -0.02024231 31.1953125 -0.03067017 C39.15506128 0.09378043 45.9256514 1.93164405 51.91601562 7.41928101 C58.1278335 14.03241999 59.4486736 20.70690444 59.41992188 29.47973633 C59.42839142 30.44005264 59.43686096 31.40036896 59.44558716 32.38978577 C59.46890043 35.55035817 59.46998053 38.71044202 59.46875 41.87109375 C59.47585571 44.07915947 59.48355531 46.28722335 59.49182129 48.49528503 C59.50525365 53.11938612 59.50684073 57.74331652 59.50097656 62.36743164 C59.49508618 68.27537893 59.52565129 74.18250284 59.56609344 80.09029102 C59.59202213 84.65012477 59.59484305 89.20976174 59.59120178 93.76965904 C59.59288863 95.94683588 59.60248891 98.12402223 59.62034607 100.30112648 C59.64263437 103.35470278 59.63278283 106.40663143 59.61523438 109.46020508 C59.62849762 110.34832886 59.64176086 111.23645264 59.65542603 112.15148926 C59.55320444 119.85810576 56.90426393 126.17223072 51.97265625 132.1015625 C51.34230469 132.6171875 50.71195312 133.1328125 50.0625 133.6640625 C49.12083984 134.4684375 49.12083984 134.4684375 48.16015625 135.2890625 C41.9129359 139.26559335 35.47354666 138.97087267 28.3203125 138.96484375 C27.19358124 138.96912888 26.06684998 138.973414 24.90597534 138.97782898 C22.52733023 138.98356078 20.14866759 138.98408104 17.77001953 138.97973633 C14.14455016 138.97657952 10.51989966 139.00004012 6.89453125 139.02539062 C4.57812602 139.02766414 2.26171862 139.02836687 -0.0546875 139.02734375 C-1.13201141 139.0365535 -2.20933533 139.04576324 -3.31930542 139.05525208 C-10.41203912 139.01198621 -16.19250158 138.30739773 -22.171875 134.15625 C-22.69265625 133.62257813 -23.2134375 133.08890625 -23.75 132.5390625 C-24.28109375 132.02085937 -24.8121875 131.50265625 -25.359375 130.96875 C-30.15573839 124.23100143 -31.59266558 117.85083816 -31.51757812 109.69726562 C-31.5245874 108.74480453 -31.53159668 107.79234344 -31.53881836 106.8110199 C-31.55630311 103.68881346 -31.54480928 100.56752681 -31.53125 97.4453125 C-31.53394764 95.26013008 -31.53783233 93.07494884 -31.54284668 90.88977051 C-31.54872886 86.32043985 -31.54021989 81.75142296 -31.52148438 77.18212891 C-31.49869594 71.3414741 -31.51182586 65.50155468 -31.53577423 59.66092682 C-31.55026669 55.15173864 -31.54561036 50.6427232 -31.53526306 46.13352966 C-31.53260532 43.98066622 -31.53583181 41.8277868 -31.54518127 39.67494202 C-31.55540359 36.65982854 -31.53976608 33.64588621 -31.51757812 30.63085938 C-31.52567505 29.75163315 -31.53377197 28.87240692 -31.54211426 27.96653748 C-31.43901317 20.35809131 -29.00573697 14.73166022 -24.875 8.4140625 C-17.5492858 1.40685761 -9.86068392 -0.09464765 0 0 Z " fill="#DA4F57" transform="translate(307,313.3359375)"/>
<path d="M0 0 C12.87 0 25.74 0 39 0 C39 77.88 39 155.76 39 236 C17.88 236 -3.24 236 -25 236 C-25 216.2 -25 196.4 -25 176 C-16.42 175.67 -7.84 175.34 1 175 C9.634249 171.37329145 9.634249 171.37329145 14.5625 165.375 C15.01753906 164.61960937 15.47257812 163.86421875 15.94140625 163.0859375 C17.55768045 159.90110198 18.1268082 157.34216473 18.14717102 153.820755 C18.15432632 152.96994858 18.16148163 152.11914215 18.16885376 151.24255371 C18.17154266 150.31213257 18.17423157 149.38171143 18.17700195 148.4230957 C18.18357315 147.44064377 18.19014435 146.45819183 18.19691467 145.44596863 C18.21665147 142.18923874 18.22831189 138.932555 18.23828125 135.67578125 C18.24235678 134.56319632 18.2464323 133.45061138 18.25063133 132.30431175 C18.27149486 126.41422079 18.28579472 120.52415313 18.29516602 114.6340332 C18.3062239 108.55554347 18.34061622 102.47742045 18.38033772 96.39906025 C18.40650784 91.72095569 18.41485829 87.0429384 18.41844749 82.36476707 C18.42331331 80.12452916 18.43492709 77.88429513 18.45348549 75.6441288 C18.47788195 72.50375113 18.4769105 69.36432075 18.4699707 66.22387695 C18.48918579 64.84342697 18.48918579 64.84342697 18.50878906 63.43508911 C18.45350999 56.54965787 16.79846731 51.32032601 12.32421875 46.01171875 C11.78410156 45.57472656 11.24398437 45.13773437 10.6875 44.6875 C10.15511719 44.23761719 9.62273437 43.78773438 9.07421875 43.32421875 C1.84440277 38.70857352 -4.49197108 38.48054634 -12.9375 38.3125 C-14.09830078 38.27833984 -15.25910156 38.24417969 -16.45507812 38.20898438 C-19.30305574 38.12694387 -22.15151096 38.06178473 -25 38 C-25 34.04 -25 30.08 -25 26 C-23.35 25.46375 -21.7 24.9275 -20 24.375 C-12.17024109 21.4930038 -6.37347154 18.05861612 -2.7890625 10.3203125 C-1.6417538 6.94654335 -0.86427921 3.45711686 0 0 Z " fill="#EAB04C" transform="translate(435,276)"/>
<path d="M0 0 C1.12531631 -0.00524185 2.25063263 -0.0104837 3.41004944 -0.0158844 C5.78271665 -0.02228921 8.15541567 -0.02098766 10.52807617 -0.01245117 C14.14494731 -0.00394203 17.76023777 -0.03272539 21.37695312 -0.06445312 C23.68880161 -0.06606541 26.00065288 -0.06548708 28.3125 -0.0625 C29.38668686 -0.07373398 30.46087372 -0.08496796 31.56761169 -0.09654236 C38.0972525 -0.03636417 42.70516772 0.89421733 48.22265625 4.43359375 C49.10953125 4.99046875 49.99640625 5.54734375 50.91015625 6.12109375 C56.33261098 11.54354848 58.77974568 17.38901287 58.87808228 25.01213074 C58.86481903 25.93190201 58.85155579 26.85167328 58.83789062 27.79931641 C58.84343964 28.79400436 58.84898865 29.78869232 58.85470581 30.81352234 C58.86644038 34.07540266 58.84229214 37.33587478 58.81640625 40.59765625 C58.81469368 42.87730852 58.81476232 45.15696276 58.81652832 47.43661499 C58.81487868 52.20272793 58.79624267 56.96836847 58.76464844 61.734375 C58.72492743 67.83521613 58.72061084 73.93544054 58.72811127 80.03638649 C58.73118409 84.73936587 58.71904994 89.4422073 58.70198059 94.14515305 C58.69496409 96.39455678 58.69182442 98.64397614 58.69267273 100.89339066 C58.69087001 104.0381002 58.66944821 107.18207764 58.64257812 110.32666016 C58.64550873 111.25047989 58.64843933 112.17429962 58.65145874 113.12611389 C58.54728372 121.04974749 56.45430929 126.96489484 50.98828125 132.85546875 C43.22401109 139.79521465 33.98533147 138.86482848 24.22265625 138.43359375 C23.89652344 137.76972656 23.57039063 137.10585938 23.234375 136.421875 C22.79738281 135.53886719 22.36039063 134.65585937 21.91015625 133.74609375 C21.48089844 132.87597656 21.05164063 132.00585938 20.609375 131.109375 C19.24691767 128.48040803 17.77237219 125.9558587 16.22265625 123.43359375 C16.83786133 123.4085376 17.45306641 123.38348145 18.08691406 123.35766602 C20.88235781 123.24140888 23.67748923 123.11881733 26.47265625 122.99609375 C27.44074219 122.95677734 28.40882813 122.91746094 29.40625 122.87695312 C30.34082031 122.83505859 31.27539062 122.79316406 32.23828125 122.75 C33.09711914 122.71334229 33.95595703 122.67668457 34.84082031 122.63891602 C37.12300244 122.44218424 39.07966395 122.25081125 41.22265625 121.43359375 C42.27253104 118.28396939 42.37859467 115.98571959 42.42797852 112.67700195 C42.4481604 111.47950317 42.46834229 110.28200439 42.48913574 109.04821777 C42.50561157 107.78964966 42.5220874 106.53108154 42.5390625 105.234375 C42.55771362 104.07756226 42.57636475 102.92074951 42.59558105 101.72888184 C42.66395721 97.40136462 42.72405578 93.07371981 42.78515625 88.74609375 C42.92953125 79.07296875 43.07390625 69.39984375 43.22265625 59.43359375 C23.75265625 59.43359375 4.28265625 59.43359375 -15.77734375 59.43359375 C-15.77734375 75.93359375 -15.77734375 92.43359375 -15.77734375 109.43359375 C-23.77734375 109.43359375 -23.77734375 109.43359375 -26.05963135 108.10630798 C-32.43266963 100.32257782 -31.75979013 91.71920216 -31.63671875 82.1875 C-31.63635439 80.40827836 -31.63836898 78.62905481 -31.64263916 76.84983826 C-31.64392949 73.13175942 -31.62109453 69.41486863 -31.58007812 65.69702148 C-31.5290421 60.95473751 -31.53119851 56.21432343 -31.55068588 51.47186375 C-31.5610327 47.80063411 -31.54649333 44.12982667 -31.52429962 40.45866203 C-31.51599224 38.71135274 -31.5144096 36.96399697 -31.51995087 35.21667671 C-31.53392368 24.89190851 -31.44413625 15.5400342 -24.0223999 7.54249573 C-16.84407183 0.6905229 -9.53189777 -0.02600067 0 0 Z " fill="#D94C55" transform="translate(191.77734375,313.56640625)"/>
<path d="M0 0 C11.4717272 6.43203702 19.28506089 16.39481167 23 29 C23.51916069 32.68907125 23.5625267 36.27966164 23.5 40 C23.52320313 41.38058594 23.52320313 41.38058594 23.546875 42.7890625 C23.4883638 53.17480017 19.70852723 61.21940789 13 69 C12.49855469 69.60714844 11.99710937 70.21429688 11.48046875 70.83984375 C4.32999584 78.7906129 -6.43889607 83.3883171 -16.98046875 84.37109375 C-28.88899619 84.7136236 -38.30719653 82.38499312 -48 75 C-48.969375 74.319375 -49.93875 73.63875 -50.9375 72.9375 C-59.35611817 65.6899757 -64.34451606 54.1358365 -65.34375 43.2578125 C-65.67517549 29.53127341 -62.24380688 19.05021917 -52.96484375 8.73828125 C-38.62769148 -4.92234478 -18.01437603 -8.38928066 0 0 Z " fill="#DA4C55" transform="translate(284,198)"/>
<path d="M0 0 C-0.7425 0.721875 -1.485 1.44375 -2.25 2.1875 C-9.27408838 9.37122675 -12.0859717 15.82150945 -12.375 25.9375 C-12.22026868 31.94881164 -10.87685939 37.31448935 -9 43 C-8.4121875 44.8253125 -8.4121875 44.8253125 -7.8125 46.6875 C-7.544375 47.450625 -7.27625 48.21375 -7 49 C-7.56847656 49.40089844 -8.13695313 49.80179687 -8.72265625 50.21484375 C-17.29319699 56.52470763 -24.746778 64.28731296 -27 75 C-28.58274039 88.25809879 -26.51611199 98.98173527 -21 111 C-20.32691702 112.66408579 -19.65906388 114.3303123 -19 116 C-23.62233413 116.1001172 -28.24401456 116.17204532 -32.8671875 116.21972656 C-34.43435686 116.23963732 -36.00145397 116.26677635 -37.56835938 116.30175781 C-52.53202752 116.62705495 -64.54265214 114.50696878 -76 104 C-85.39379373 93.43790251 -89.34517677 82.40393067 -89.21875 68.41796875 C-88.36666434 55.10413032 -82.45845768 45.09291342 -73 36 C-66.27255789 30.47678161 -59.39442604 27.22100372 -50.67578125 26.6953125 C-42.15392157 26.51387517 -42.15392157 26.51387517 -34.6328125 23.19140625 C-32.96155008 20.95293429 -32.96155008 20.95293429 -31.54296875 18.5078125 C-25.42038461 8.55667574 -11.84064044 -0.32001731 0 0 Z " fill="#66B49C" transform="translate(104,396)"/>
<path d="M0 0 C8.78625 -0.061875 17.5725 -0.12375 26.625 -0.1875 C29.38955566 -0.21481201 32.15411133 -0.24212402 35.00244141 -0.27026367 C37.202144 -0.27902837 39.40185146 -0.28667235 41.6015625 -0.29296875 C42.73682373 -0.30831665 43.87208496 -0.32366455 45.04174805 -0.33947754 C50.75806218 -0.34136911 55.11241953 -0.34190483 60 3 C64.76133476 7.92551872 64.16917405 14.34005431 64.203125 20.7734375 C64.20882507 21.6154068 64.21452515 22.4573761 64.22039795 23.32485962 C64.22981888 25.10165155 64.23637034 26.87846073 64.24023438 28.65527344 C64.24994268 31.35903659 64.28099427 34.06203987 64.3125 36.765625 C64.31903081 38.49739135 64.32428098 40.2291631 64.328125 41.9609375 C64.3404718 42.76220062 64.3528186 43.56346375 64.36553955 44.38900757 C64.34025183 50.8277884 63.16928109 55.2323255 59.10864258 60.41308594 C54.02401958 63.00870751 48.88103967 62.48778354 43.26171875 62.390625 C42.16589478 62.38659668 41.0700708 62.38256836 39.94104004 62.37841797 C35.85635583 62.35752517 31.77191071 62.30167969 27.6875 62.25 C13.9821875 62.12625 13.9821875 62.12625 0 62 C0 41.54 0 21.08 0 0 Z " fill="#77D090" transform="translate(271,7)"/>
<path d="M0 0 C19.14 0 38.28 0 58 0 C58.10494276 7.60018782 58.2050946 15.19774323 58.25875092 22.79802704 C58.28512405 26.33742862 58.32034704 29.87622878 58.37719727 33.4152832 C58.44206064 37.47873661 58.46620732 41.54155598 58.48828125 45.60546875 C58.51408768 46.8702153 58.5398941 48.13496185 58.56648254 49.43803406 C58.56921715 57.98856623 58.56921715 57.98856623 56.14526367 62.2956543 C51.50373491 64.81079147 47.39365353 64.71631328 42.1875 64.6640625 C40.61778442 64.67123795 40.61778442 64.67123795 39.01635742 64.67855835 C36.80743911 64.68195548 34.59847039 64.67276625 32.38964844 64.65185547 C29.0112279 64.62508896 25.63612986 64.65161143 22.2578125 64.68359375 C20.10936768 64.68028962 17.96092492 64.67388333 15.8125 64.6640625 C14.80405029 64.67418365 13.79560059 64.68430481 12.7565918 64.69473267 C8.46362786 64.62309477 5.66714282 64.36150928 1.85473633 62.2956543 C-1.15397696 56.94951494 -0.61117535 51.62838251 -0.48828125 45.60546875 C-0.48120651 44.30297684 -0.47413177 43.00048492 -0.46684265 41.65852356 C-0.44781513 38.20736116 -0.39875439 34.75726261 -0.34332275 31.30651855 C-0.29203653 27.7806666 -0.26903425 24.25463643 -0.24414062 20.72851562 C-0.19328367 13.81807301 -0.09542024 6.91054588 0 0 Z " fill="#D3EEFA" transform="translate(292,373)"/>
<path d="M0 0 C19.47 0 38.94 0 59 0 C59.0825 9.6525 59.165 19.305 59.25 29.25 C59.28641602 32.29379883 59.32283203 35.33759766 59.36035156 38.47363281 C59.37203288 40.88345636 59.38222601 43.29328778 59.390625 45.703125 C59.41108887 46.95657715 59.43155273 48.2100293 59.45263672 49.50146484 C59.45312012 50.69884277 59.45360352 51.8962207 59.45410156 53.12988281 C59.46298401 54.16912903 59.47186646 55.20837524 59.48101807 56.27911377 C58.87584502 59.70228457 57.66488355 60.84480423 55 63 C51.160539 64.9197305 46.53695471 64.3586145 42.3125 64.4375 C41.33087891 64.48326172 40.34925781 64.52902344 39.33789062 64.57617188 C34.29664415 64.65393758 30.98941384 64.56106986 27.109375 61.14453125 C26.57094971 60.59998291 26.03252441 60.05543457 25.4777832 59.49438477 C19.08141405 53.02615817 8.52980647 51.06622581 0 50 C0 33.5 0 17 0 0 Z " fill="#D2EEFA" transform="translate(176,373)"/>
<path d="M0 0 C7.92 0 15.84 0 24 0 C29 5 29 5 29.62361908 7.08492279 C29.62290657 7.7743824 29.62219406 8.46384201 29.62145996 9.17419434 C29.63266876 9.97318649 29.64387756 10.77217865 29.65542603 11.59538269 C29.64216278 12.45787125 29.62889954 13.3203598 29.61523438 14.20898438 C29.62078339 15.12827225 29.6263324 16.04756012 29.63204956 16.9947052 C29.64384384 20.02825323 29.61957253 23.06030682 29.59375 26.09375 C29.59203878 28.20454846 29.5921047 30.31534905 29.59387207 32.42614746 C29.59221895 36.84794471 29.57352181 41.26923492 29.54199219 45.69091797 C29.50231493 51.35713526 29.49794706 57.02268841 29.50545502 62.68901825 C29.50852544 67.04707924 29.49640155 71.40499109 29.47932434 75.76301575 C29.47229603 77.85218876 29.4691696 79.94137869 29.47001648 82.03056335 C29.46821756 84.9510245 29.44682728 87.87069184 29.41992188 90.79101562 C29.42285248 91.65350418 29.42578308 92.51599274 29.42880249 93.40461731 C29.36240016 98.07914685 29.06033546 101.22455933 26 105 C18.76759429 109.8216038 8.69226987 107 0 107 C0 71.69 0 36.38 0 0 Z " fill="#D2EEFA" transform="translate(410,330)"/>
<path d="M0 0 C3.95950905 -0.13601367 7.91426402 -0.23462036 11.875 -0.3125 C13.53789062 -0.3753418 13.53789062 -0.3753418 15.234375 -0.43945312 C24.14776902 -0.57053245 30.57700198 1.25746322 37.4375 7.0625 C38.2109375 8.0215625 38.2109375 8.0215625 39 9 C39.53625 9.639375 40.0725 10.27875 40.625 10.9375 C44.28276026 16.42414038 44.30177432 21.37387858 44.30639648 27.7722168 C44.31472 28.7517482 44.32304352 29.7312796 44.33161926 30.74049377 C44.35570096 33.97677599 44.36449021 37.21285645 44.37109375 40.44921875 C44.38006304 42.70498209 44.38918494 44.96074483 44.39845276 47.21650696 C44.41494146 51.94668014 44.42264239 56.67678256 44.42553711 61.40698242 C44.43091381 67.45170856 44.46856571 73.49576421 44.51428127 79.54030132 C44.54411002 84.20134371 44.55126198 88.86222597 44.55226326 93.52335548 C44.5564557 95.75078202 44.56885051 97.97820947 44.58978081 100.20554161 C44.6168085 103.33112363 44.61183474 106.45516913 44.59936523 109.58081055 C44.61419952 110.49077789 44.62903381 111.40074524 44.64431763 112.33828735 C44.56212287 119.61826753 42.42851485 126.04577562 37.5926733 131.6231184 C29.78411653 138.61610746 22.0258892 138.39126097 12.0625 138.1875 C10.80630859 138.17396484 9.55011719 138.16042969 8.25585938 138.14648438 C5.17038729 138.11128888 2.08513727 138.05748703 -1 138 C-1 133.05 -1 128.1 -1 123 C0.68609375 122.96261719 2.3721875 122.92523438 4.109375 122.88671875 C6.32293903 122.82106219 8.5364797 122.75461475 10.75 122.6875 C11.86117188 122.66494141 12.97234375 122.64238281 14.1171875 122.61914062 C15.18710937 122.58369141 16.25703125 122.54824219 17.359375 122.51171875 C18.83615723 122.47244263 18.83615723 122.47244263 20.34277344 122.43237305 C23.39902702 121.93507195 24.7883303 121.14125246 27 119 C28.33069165 115.00792506 28.16415281 111.16553645 28.17700195 107.00219727 C28.18357315 106.08159515 28.19014435 105.16099304 28.19691467 104.2124939 C28.21663841 101.16379721 28.22830621 98.11514968 28.23828125 95.06640625 C28.24235678 94.02605665 28.2464323 92.98570705 28.25063133 91.91383171 C28.27148484 86.41089959 28.28579154 80.90799238 28.29516602 75.4050293 C28.30624873 69.71400215 28.34067225 64.02336403 28.38033772 58.33247471 C28.40644002 53.96163693 28.414852 49.59089293 28.41844749 45.21998405 C28.42332742 43.12157491 28.43498113 41.02317034 28.45348549 38.92483711 C28.47774832 35.99197303 28.47693581 33.06013028 28.4699707 30.12719727 C28.48278076 29.25797134 28.49559082 28.38874542 28.50878906 27.49317932 C28.48909631 22.63157069 28.48909631 22.63157069 26.09562683 18.49205017 C22.86597274 16.19259214 20.92062244 15.84163424 16.9921875 15.68359375 C16.00605469 15.64169922 15.01992188 15.59980469 14.00390625 15.55664062 C12.45509766 15.49766602 12.45509766 15.49766602 10.875 15.4375 C9.83472656 15.39431641 8.79445313 15.35113281 7.72265625 15.30664062 C5.1486017 15.20037232 2.57431869 15.09966473 0 15 C0 10.05 0 5.1 0 0 Z " fill="#C32530" transform="translate(410,314)"/>
<path d="M0 0 C7.65197825 4.04685628 13.98987205 9.83014458 16.703125 18.2265625 C18.38268386 27.02869504 17.98130177 35.8018054 13.125 43.4375 C12.73570312 44.06140625 12.34640625 44.6853125 11.9453125 45.328125 C7.7440898 51.04576537 1.75546628 54.20897036 -4.875 56.4375 C-14.14465961 57.85279768 -21.41963978 56.2592224 -29.02734375 50.9296875 C-34.97051964 46.17071984 -39.43190479 40.02818082 -40.875 32.4375 C-41.81362398 22.66657821 -39.82365074 15.77623718 -33.625 8.1875 C-24.91373692 -1.21841121 -12.30771363 -5.03497376 0 0 Z " fill="#D2EBF7" transform="translate(274.875,210.5625)"/>
<path d="M0 0 C8.25 0 16.5 0 25 0 C25 21.12 25 42.24 25 64 C17.575 64.99 17.575 64.99 10 66 C5.09921763 67.87720363 5.09921763 67.87720363 0.29296875 69.9765625 C-2 71 -2 71 -4 71 C-4.09275987 62.48107847 -4.16379482 53.96236862 -4.20724869 45.4430666 C-4.22810652 41.48700917 -4.25639036 37.53129775 -4.30175781 33.57543945 C-4.34528121 29.75639136 -4.36915069 25.93767567 -4.37950897 22.11839867 C-4.3868888 20.66273962 -4.4013002 19.20709838 -4.42292023 17.75158119 C-4.45204276 15.70939733 -4.45595264 13.66857946 -4.45410156 11.6262207 C-4.46298401 10.46484085 -4.47186646 9.303461 -4.48101807 8.10688782 C-4 5 -4 5 0 0 Z " fill="#D2EEFA" transform="translate(92,330)"/>
<path d="M0 0 C1.16337891 0.00322266 2.32675781 0.00644531 3.52539062 0.00976562 C4.74033203 0.01814453 5.95527344 0.02652344 7.20703125 0.03515625 C8.43357422 0.03966797 9.66011719 0.04417969 10.92382812 0.04882812 C13.9557499 0.06062549 16.98764665 0.07856111 20.01953125 0.09765625 C20.01953125 5.04765625 20.01953125 9.99765625 20.01953125 15.09765625 C17.61607422 15.11892578 17.61607422 15.11892578 15.1640625 15.140625 C13.05335675 15.18752957 10.94268055 15.23577693 8.83203125 15.28515625 C7.24938477 15.29385742 7.24938477 15.29385742 5.63476562 15.30273438 C4.61318359 15.33173828 3.59160156 15.36074219 2.5390625 15.390625 C1.60167236 15.40633545 0.66428223 15.4220459 -0.30151367 15.43823242 C-4.08526302 16.36960096 -5.52349231 18.11303777 -7.98046875 21.09765625 C-8.67589599 24.25243861 -8.67589599 24.25243861 -8.49707031 27.72045898 C-8.49309738 28.36504059 -8.48912445 29.00962219 -8.48503113 29.67373657 C-8.47385632 31.06629956 -8.45154412 32.45880898 -8.4192276 33.85104179 C-8.37048134 36.05898896 -8.3565317 38.26470482 -8.35223389 40.47315979 C-8.33435291 46.74760859 -8.25836205 53.02070301 -8.14892578 59.29418945 C-8.08427319 63.13882913 -8.06354546 66.98174422 -8.06908417 70.82689095 C-8.06213352 72.28743614 -8.03815681 73.74800701 -7.99652863 75.20797539 C-7.67410255 86.62680139 -7.67410255 86.62680139 -10.83532715 90.18606567 C-13.16308594 91.72680664 -13.16308594 91.72680664 -15.45819092 92.82655334 C-18.76157047 94.49129277 -21.19330196 96.66893087 -23.98046875 99.09765625 C-24.11990443 88.57906313 -24.22631001 78.06069231 -24.29134178 67.54136086 C-24.32256479 62.6559837 -24.36487104 57.77124199 -24.43310547 52.88623047 C-24.49862226 48.16587515 -24.53424261 43.44612839 -24.54973221 38.72535324 C-24.56076089 36.93047896 -24.58229722 35.13563546 -24.61484909 33.34102249 C-24.93388699 15.01195885 -24.93388699 15.01195885 -17.98046875 7.09765625 C-15.53125 4.84375 -15.53125 4.84375 -13.29296875 3.53515625 C-12.54660156 3.08011719 -11.80023438 2.62507813 -11.03125 2.15625 C-7.21520049 0.18644158 -4.23436519 -0.02065544 0 0 Z " fill="#C32631" transform="translate(96.98046875,313.90234375)"/>
<path d="M0 0 C0.88449326 -0.00953201 1.76898651 -0.01906403 2.68028259 -0.02888489 C4.10226707 -0.02751778 4.10226707 -0.02751778 5.55297852 -0.02612305 C6.53428238 -0.03040817 7.51558624 -0.0346933 8.52662659 -0.03910828 C10.60026275 -0.04484666 12.67391904 -0.04535546 14.74755859 -0.04101562 C17.91677257 -0.03785686 21.08505188 -0.06131713 24.25415039 -0.08666992 C26.27042526 -0.08894311 28.28670263 -0.08964632 30.30297852 -0.08862305 C31.72192665 -0.10243767 31.72192665 -0.10243767 33.16954041 -0.11653137 C38.06850741 -0.08215431 41.57282681 -0.00927938 45.49438477 3.2746582 C50.31598857 10.50706391 47.49438477 20.58238833 47.49438477 29.2746582 C28.02438477 29.2746582 8.55438477 29.2746582 -11.50561523 29.2746582 C-11.50561523 7.2746582 -11.50561523 7.2746582 -8.50561523 2.2746582 C-5.67060829 0.34786124 -3.38703874 0.02012416 0 0 Z " fill="#D3E9F5" transform="translate(187.505615234375,328.725341796875)"/>
<path d="M0 0 C0.90113525 -0.0157608 1.80227051 -0.03152161 2.73071289 -0.04776001 C3.6871167 -0.03763885 4.64352051 -0.0275177 5.62890625 -0.01708984 C6.62720459 -0.02187347 7.62550293 -0.0266571 8.65405273 -0.03158569 C10.75864239 -0.03497873 12.86328518 -0.02581819 14.96777344 -0.00488281 C18.18153873 0.02189045 21.39181156 -0.00465175 24.60546875 -0.03662109 C26.65495559 -0.03331689 28.70444027 -0.02691044 30.75390625 -0.01708984 C31.71031006 -0.027211 32.66671387 -0.03733215 33.65209961 -0.04776001 C34.55323486 -0.03199921 35.45437012 -0.0162384 36.3828125 0 C37.16857666 0.00397797 37.95434082 0.00795593 38.76391602 0.01205444 C41.19140625 0.64697266 41.19140625 0.64697266 47.19140625 5.64697266 C47.19140625 13.23697266 47.19140625 20.82697266 47.19140625 28.64697266 C28.05140625 28.64697266 8.91140625 28.64697266 -10.80859375 28.64697266 C-10.80859375 21.05697266 -10.80859375 13.46697266 -10.80859375 5.64697266 C-4.05687228 0.0205381 -4.05687228 0.0205381 0 0 Z " fill="#D3EDF9" transform="translate(302.80859375,328.35302734375)"/>
<path d="M0 0 C0.79148437 -0.02578125 1.58296875 -0.0515625 2.3984375 -0.078125 C4.625 0.25 4.625 0.25 6.23713684 1.26728821 C8.40590771 4.36561065 8.0641355 7.65107253 8.05737305 11.30151367 C8.0675647 12.12125168 8.07775635 12.94098969 8.08825684 13.78556824 C8.11846314 16.49643724 8.12766432 19.20695335 8.13671875 21.91796875 C8.15355979 23.79699383 8.17170925 25.6760076 8.19111633 27.55500793 C8.23868491 32.50170357 8.26844987 37.44835338 8.29455566 42.39520264 C8.32432663 47.44259698 8.37086882 52.48983329 8.41601562 57.53710938 C8.50212689 67.44134192 8.56788751 77.34555773 8.625 87.25 C3.015 87.25 -2.595 87.25 -8.375 87.25 C-8.44278971 76.77527304 -8.49782418 66.3006919 -8.53043652 55.82579517 C-8.54608917 50.96182413 -8.5673202 46.09801101 -8.60131836 41.23413086 C-8.63392598 36.53978105 -8.65185603 31.8455831 -8.65963173 27.15112877 C-8.66517271 25.36056821 -8.67599291 23.57001591 -8.69219017 21.77952003 C-8.71398321 19.27055557 -8.71696616 16.76221779 -8.71557617 14.25317383 C-8.726362 13.51374039 -8.73714783 12.77430695 -8.7482605 12.01246643 C-8.70785822 5.26809723 -7.09798047 0.13782486 0 0 Z " fill="#595858" transform="translate(263.375,-0.25)"/>
<path d="M0 0 C2.4375 1.375 2.4375 1.375 4 4 C4.32131194 7.36060684 4.23114045 10.63562234 4 14 C5.1446875 14.1546875 5.1446875 14.1546875 6.3125 14.3125 C9.29740522 15.07608041 10.35674426 15.40538567 12 18 C12.48219393 21.78866656 12.69475837 24.02315929 10.44140625 27.19140625 C7.06240208 29.69457254 4.66663607 29.53280816 0.5 29.5 C-1.46453125 29.51546875 -1.46453125 29.51546875 -3.46875 29.53125 C-7 29 -7 29 -9.4375 27.625 C-11.93504944 23.42911694 -11.57795195 19.28754909 -11.5 14.5 C-11.51546875 13.54996094 -11.5309375 12.59992188 -11.546875 11.62109375 C-11.50813988 4.73592673 -11.50813988 4.73592673 -9.1875 1.375 C-5.9529913 -0.65811976 -3.73561761 -0.53365966 0 0 Z " fill="#5A5A5B" transform="translate(267,216)"/>
<path d="M0 0 C3 0 3 0 4.82421875 1.71484375 C5.43910156 2.44832031 6.05398438 3.18179688 6.6875 3.9375 C7.31011719 4.66839844 7.93273437 5.39929688 8.57421875 6.15234375 C10 8 10 8 10 9 C4.39 9 -1.22 9 -7 9 C-1.125 1.125 -1.125 1.125 0 0 Z " fill="#F4D864" transform="translate(262,185)"/>
</svg>
