<?xml version="1.0" encoding="UTF-8"?>
<svg version="1.1" xmlns="http://www.w3.org/2000/svg" width="512" height="512">
<path d="M0 0 C2.65527344 1.25244141 2.65527344 1.25244141 5.359375 2.8515625 C6.3803125 3.448479 7.40125 4.04539551 8.453125 4.66040039 C9.54109375 5.30871826 10.6290625 5.95703613 11.75 6.625 C13.48292648 7.64198661 15.21586217 8.65895792 16.94934082 9.67500305 C18.75362043 10.73395157 20.55558464 11.79676539 22.35742188 12.85986328 C25.93915373 14.96911337 29.53694877 17.04960592 33.140625 19.12109375 C33.71923279 19.45375244 34.29784058 19.78641113 34.89398193 20.12915039 C36.59583939 21.10719216 38.29791772 22.08484955 40 23.0625 C43.0558749 24.81932444 46.10997021 26.57863689 49.15625 28.35205078 C51.08502929 29.46977573 53.0229363 30.5718685 54.96875 31.65966797 C55.8865625 32.18318848 56.804375 32.70670898 57.75 33.24609375 C58.56984375 33.70556396 59.3896875 34.16503418 60.234375 34.63842773 C60.81703125 35.08774658 61.3996875 35.53706543 62 36 C62 36.99 62 37.98 62 39 C59.73631224 40.57638423 57.52978766 41.91667127 55.125 43.25 C54.37468506 43.67837158 53.62437012 44.10674316 52.85131836 44.5480957 C51.1651948 45.51046266 49.47646331 46.46826963 47.78564453 47.42236328 C43.78385453 49.68875829 39.80605249 51.99605814 35.82568359 54.29980469 C32.49152089 56.22856019 29.15441022 58.15211958 25.81640625 60.07421875 C19.20884965 63.87919818 12.60412307 67.6890651 6 71.5 C3.83334689 72.7500235 1.66668021 74.00002347 -0.5 75.25 C-1.5725 75.86875 -2.645 76.4875 -3.75 77.125 C-65.5 112.75 -65.5 112.75 -68.75048828 114.62524414 C-70.91557071 115.87435518 -73.08060982 117.12354129 -75.24560547 118.37280273 C-80.68615706 121.51202309 -86.12747216 124.64990563 -91.5703125 127.78515625 C-93.75521193 129.04426459 -95.94010779 130.30337914 -98.125 131.5625 C-99.18525391 132.17295166 -100.24550781 132.78340332 -101.33789062 133.41235352 C-106.87215172 136.60282634 -112.39409569 139.81287582 -117.8984375 143.0546875 C-119.00687012 143.70622803 -120.11530273 144.35776855 -121.25732422 145.02905273 C-123.37837494 146.2773778 -125.49728476 147.52934949 -127.61376953 148.78540039 C-128.55591309 149.3396167 -129.49805664 149.89383301 -130.46875 150.46484375 C-131.71301758 151.20142212 -131.71301758 151.20142212 -132.98242188 151.95288086 C-135 153 -135 153 -137 153 C-137 171.15 -137 189.3 -137 208 C-135.35 208.66 -133.7 209.32 -132 210 C-130.79328243 210.60552136 -129.59833393 211.23521562 -128.41796875 211.890625 C-127.74564209 212.26316406 -127.07331543 212.63570312 -126.38061523 213.01953125 C-125.65688721 213.42558594 -124.93315918 213.83164063 -124.1875 214.25 C-123.41414307 214.68183594 -122.64078613 215.11367187 -121.84399414 215.55859375 C-105.41514882 224.77953946 -89.23610672 234.4455324 -73 244 C-73.01633987 243.35377686 -73.03267975 242.70755371 -73.04951477 242.04174805 C-73.20729006 235.29241807 -73.2732594 228.54653758 -73.28686523 221.79541016 C-73.30386014 219.27919325 -73.34396776 216.76301908 -73.40795898 214.24755859 C-73.89911426 194.05029541 -73.89911426 194.05029541 -70.85696411 189.16409302 C-67.51398658 185.87547167 -63.3353943 184.52785863 -59 183 C-56.9613091 181.86429386 -54.94562701 180.68614466 -52.95703125 179.46484375 C-50.90995526 178.28714651 -48.86174178 177.11142462 -46.8125 175.9375 C-45.10957218 174.95848887 -43.4066462 173.97947453 -41.7038269 173.00027466 C-39.95604539 171.99552701 -38.20779404 170.99160086 -36.45947266 169.98779297 C-30.96860763 166.8327737 -25.48452655 163.66602037 -20 160.5 C-17.83336859 159.24993888 -15.66670186 157.999939 -13.5 156.75 C-12.4275 156.13125 -11.355 155.5125 -10.25 154.875 C77.5 104.25 77.5 104.25 80.75512695 102.37207031 C82.90473634 101.13189239 85.05431358 99.89165873 87.20385742 98.65136719 C92.27309212 95.7264977 97.34264936 92.80219167 102.4133606 89.87988281 C104.80426597 88.50193062 107.19498672 87.12365828 109.58569336 85.74536133 C111.26983963 84.77459018 112.95425231 83.80428126 114.63867188 82.83398438 C115.66154297 82.24423828 116.68441406 81.65449219 117.73828125 81.046875 C118.63587158 80.52963867 119.53346191 80.01240234 120.45825195 79.47949219 C123.04943307 78.02662918 123.04943307 78.02662918 125.51635742 76.18457031 C128 75 128 75 130.47753906 75.63085938 C131.30995117 76.08267578 132.14236328 76.53449219 133 77 C133.85561523 77.44666016 134.71123047 77.89332031 135.59277344 78.35351562 C136.50575195 78.86591797 137.41873047 79.37832031 138.359375 79.90625 C139.38385742 80.48004395 140.40833984 81.05383789 141.46386719 81.64501953 C143.09050293 82.56323486 143.09050293 82.56323486 144.75 83.5 C146.43464355 84.44721924 146.43464355 84.44721924 148.15332031 85.41357422 C157.17064133 90.49824807 166.08732861 95.73342145 175 101 C181.93 104.96 188.86 108.92 196 113 C196 143.36 196 173.72 196 205 C188.41 205.33 180.82 205.66 173 206 C148.54961942 209.41963365 125.00700426 217.77790479 106 234 C105.21367187 234.64195312 104.42734375 235.28390625 103.6171875 235.9453125 C82.5634026 253.83112976 70.93202739 279.53874558 65 306 C64.7525 307.04929687 64.505 308.09859375 64.25 309.1796875 C57.63442023 343.08453384 67.73122133 376.04196404 83 406 C83.6675998 407.33286636 84.3345121 408.66607793 85 410 C78.48638285 414.52203223 71.74467212 418.53419723 64.84240723 422.43218994 C62.37796927 423.82413006 59.91792948 425.22376616 57.45755005 426.62286377 C56.18372882 427.34714432 54.90970036 428.07106052 53.63546753 428.7946167 C47.32525263 432.37866442 41.03583864 435.99838943 34.75 439.625 C33.69594971 440.23013428 32.64189941 440.83526855 31.5559082 441.45874023 C26.08261436 444.60812115 20.64654695 447.80656933 15.25 451.0859375 C14.15848633 451.74255371 13.06697266 452.39916992 11.94238281 453.07568359 C9.86549692 454.32759661 7.79660329 455.59289841 5.73730469 456.87353516 C4.80821289 457.43089355 3.87912109 457.98825195 2.921875 458.5625 C2.11331055 459.05878906 1.30474609 459.55507813 0.47167969 460.06640625 C-2.78868956 461.29790092 -4.66087096 460.90923875 -8 460 C-10.47167969 458.83935547 -10.47167969 458.83935547 -12.921875 457.3671875 C-13.85112793 456.81619385 -14.78038086 456.2652002 -15.73779297 455.69750977 C-16.73182129 455.09608154 -17.72584961 454.49465332 -18.75 453.875 C-20.91360121 452.58906731 -23.07768002 451.3039379 -25.2421875 450.01953125 C-26.35819336 449.3538916 -27.47419922 448.68825195 -28.62402344 448.00244141 C-34.01253101 444.80627861 -39.44352595 441.68489786 -44.875 438.5625 C-47.05998436 437.30353904 -49.24487972 436.04442362 -51.4296875 434.78515625 C-52.51475586 434.16012207 -53.59982422 433.53508789 -54.71777344 432.89111328 C-60.14659942 429.76319852 -65.57319281 426.63141552 -71 423.5 C-73.16665583 422.24998121 -75.3333225 420.99998122 -77.5 419.75 C-97 408.5 -97 408.5 -116.5 397.25 C-117.57266113 396.63116943 -118.64532227 396.01233887 -119.75048828 395.37475586 C-121.91557071 394.12564482 -124.08060982 392.87645871 -126.24560547 391.62719727 C-131.68615706 388.48797691 -137.12747216 385.35009437 -142.5703125 382.21484375 C-156.15889513 374.3854195 -169.72661997 366.52145684 -183.26269531 358.6015625 C-185.06636944 357.54625548 -186.8703975 356.49155312 -188.67480469 355.4375 C-191.0966883 354.02250828 -193.51733537 352.6054293 -195.9375 351.1875 C-196.647854 350.77266357 -197.35820801 350.35782715 -198.09008789 349.93041992 C-202.88473701 347.11526299 -202.88473701 347.11526299 -204 346 C-204.09800125 343.00384458 -204.1299134 340.03073016 -204.12025452 337.03416443 C-204.12110894 336.0818423 -204.12196337 335.12952018 -204.12284368 334.14833981 C-204.12450139 330.93147546 -204.11897238 327.71466234 -204.11352539 324.49780273 C-204.11324356 322.20211793 -204.11340118 319.90643304 -204.1139679 317.61074829 C-204.11425601 311.35686689 -204.10835699 305.10300449 -204.10139394 298.84912753 C-204.09516276 292.32146217 -204.09455679 285.79379642 -204.09336853 279.26612854 C-204.09060881 268.30282246 -204.08435324 257.33952344 -204.07543945 246.3762207 C-204.0662661 235.08195023 -204.05918489 223.78768165 -204.05493164 212.4934082 C-204.05453756 211.44984733 -204.05453756 211.44984733 -204.05413551 210.38520443 C-204.05283051 206.89518647 -204.05156679 203.4051685 -204.05032361 199.91515052 C-204.03995007 170.94342905 -204.02225683 141.97171469 -204 113 C-203.2294053 112.57291465 -203.2294053 112.57291465 -202.44324303 112.13720131 C-200.08735162 110.83110051 -197.73190542 109.52419879 -195.37646484 108.21728516 C-194.16439613 107.54555016 -194.16439613 107.54555016 -192.92784119 106.86024475 C-186.77778254 103.44680105 -180.68434042 99.94710025 -174.625 96.375 C-165.7837872 91.18984139 -156.90576314 86.07310981 -148 81 C-138.27856294 75.46048161 -128.59104683 69.86624806 -118.93310547 64.21655273 C-108.40915375 58.06233258 -97.84619863 51.97630004 -87.28222656 45.89111328 C-81.85340058 42.76319852 -76.42680719 39.63141552 -71 36.5 C-68.83334417 35.24998121 -66.6666775 33.99998122 -64.5 32.75 C-63.4275 32.13125 -62.355 31.5125 -61.25 30.875 C-58 29 -54.75 27.125 -51.5 25.25 C-50.42588867 24.62996094 -49.35177734 24.00992187 -48.24511719 23.37109375 C-46.09598426 22.13193074 -43.9456082 20.89492106 -41.79394531 19.66015625 C-36.70898524 16.73858186 -31.63959655 13.79655101 -26.61242676 10.7767334 C-24.23637058 9.35122749 -21.85313376 7.93798164 -19.46923828 6.52563477 C-17.78875017 5.52311693 -16.11882645 4.50295724 -14.44921875 3.48242188 C-13.42957031 2.87978516 -12.40992188 2.27714844 -11.359375 1.65625 C-10.46702148 1.11806641 -9.57466797 0.57988281 -8.65527344 0.02539062 C-5.26497747 -1.28384467 -3.47699506 -0.97847078 0 0 Z " fill="#000000" transform="translate(210,7)"/>
<path d="M0 0 C29.96283433 -0.68833538 58.09601488 9.40337776 80.0222168 29.90478516 C101.50905856 50.65094811 112.04922174 78.71335441 112.73852539 108.26000977 C112.82874217 121.32193603 112.11866571 133.60921973 108.265625 146.12109375 C108.0402002 146.86762207 107.81477539 147.61415039 107.58251953 148.38330078 C101.30809031 168.48447626 90.88963463 187.33264825 78.265625 204.12109375 C77.80269043 204.73807129 77.33975586 205.35504883 76.86279297 205.99072266 C71.70738639 212.8058318 66.33217895 219.36399793 60.53125 225.64453125 C59.290116 227.0012191 58.05675351 228.36581333 56.86303711 229.7644043 C51.82943698 235.65378484 46.408325 241.13070914 40.9230957 246.59399414 C39.33103534 248.18069321 37.7443951 249.77267117 36.15820312 251.36523438 C31.26556846 256.26125957 26.34133914 261.07550606 21.07348633 265.57202148 C19.21246698 267.16664238 17.4038978 268.80857806 15.59765625 270.46484375 C14.42474517 271.51722363 13.25157051 272.56930982 12.078125 273.62109375 C11.48837891 274.17023438 10.89863281 274.719375 10.29101562 275.28515625 C6.03060338 279.05744563 6.03060338 279.05744563 2.77734375 279.328125 C-0.91982787 277.55141267 -3.71035041 275.05227622 -6.734375 272.30859375 C-7.40025635 271.71602783 -8.0661377 271.12346191 -8.75219727 270.51293945 C-10.75466496 268.7247747 -12.74461532 266.92337158 -14.734375 265.12109375 C-15.74291508 264.22461368 -16.75197869 263.32872202 -17.76171875 262.43359375 C-24.83740266 256.05123188 -31.61783199 249.36418273 -38.37893677 242.65176392 C-39.43167209 241.60707314 -40.48588299 240.56386675 -41.54171753 239.52230835 C-48.41964787 232.7276037 -54.72464838 225.71197225 -60.734375 218.12109375 C-61.77005958 216.8656952 -62.80871075 215.61273245 -63.8515625 214.36328125 C-90.40222308 182.1419704 -110.21403054 142.35271596 -106.109375 99.68359375 C-102.74796185 70.22286306 -90.01985451 42.95852834 -66.984375 23.82421875 C-47.19526343 8.84496068 -24.74567328 1.09587982 0 0 Z M-43.734375 79.12109375 C-54.24100967 93.98014278 -57.63679273 109.47247725 -55.3046875 127.4296875 C-52.60042124 139.99951771 -45.77270046 150.19676519 -36.734375 159.12109375 C-36.19425781 159.683125 -35.65414062 160.24515625 -35.09765625 160.82421875 C-24.97728425 170.51122469 -10.43159351 174.75490227 3.265625 175.49609375 C20.18427608 174.58058233 34.4151895 168.29123524 46.265625 156.12109375 C46.89984375 155.51910156 47.5340625 154.91710937 48.1875 154.296875 C58.85985579 143.41201655 62.65396336 128.27431924 62.56445312 113.48754883 C62.1533326 97.3599284 54.71291499 83.23837178 43.265625 72.12109375 C42.45544922 71.27998047 42.45544922 71.27998047 41.62890625 70.421875 C31.51932694 60.71973466 16.75215424 56.31320095 3.015625 55.80859375 C-15.7806748 57.37495207 -31.41026599 64.66805995 -43.734375 79.12109375 Z " fill="#000000" transform="translate(393.734375,226.87890625)"/>
</svg>
